<svg version="1.2" xmlns="http://www.w3.org/2000/svg" viewBox="0 0 311 262" width="311" height="262">
	<title>cactuscat</title>
	<defs>
		<linearGradient id="g1" x2="1" gradientUnits="userSpaceOnUse" gradientTransform="matrix(0,182.459,-182.459,0,178.01,36.58)">
			<stop offset="0" stop-color="#ee3f4e"/>
			<stop offset="1" stop-color="#af2e38"/>
		</linearGradient>
	</defs>
	<style>
		.s0 { fill: url(#g1) } 
		.s1 { fill: #771f8a } 
		.s2 { fill: #36553b } 
		.s3 { fill: #8faa5b } 
		.s4 { fill: #340a45 } 
		.s5 { fill: #17011e } 
		.s6 { fill: #030702 } 
		.s7 { fill: #80935b } 
		.s8 { fill: #060905 } 
		.s9 { fill: #8fa260 } 
		.s10 { fill: #8ea360 } 
		.s11 { fill: #000d00 } 
		.s12 { fill: #0e1606 } 
		.s13 { fill: #8fa65e } 
		.s14 { fill: #0f1805 } 
		.s15 { fill: #38503c } 
		.s16 { fill: #90a366 } 
		.s17 { fill: #8fa95c } 
		.s18 { fill: #050d02 } 
		.s19 { fill: #37533b } 
		.s20 { fill: #d44351 } 
		.s21 { fill: #8fa266 } 
		.s22 { fill: #040d02 } 
		.s23 { fill: #ce3d50 } 
		.s24 { fill: #f43f4d } 
		.s25 { fill: #7b8958 } 
		.s26 { fill: #1b0203 } 
		.s27 { fill: #ee3f4e } 
		.s28 { fill: #121e04 } 
		.s29 { fill: #020f00 } 
		.s30 { fill: #071203 } 
		.s31 { fill: #0e0505 } 
		.s32 { fill: #030f00 } 
		.s33 { fill: #040f00 } 
		.s34 { fill: #000a00 } 
		.s35 { fill: #020d00 } 
		.s36 { fill: #c54856 } 
		.s37 { fill: #da4151 } 
		.s38 { fill: #cd474f } 
		.s39 { fill: #f03e4e } 
		.s40 { fill: #f63d4f } 
		.s41 { fill: #350706 } 
		.s42 { fill: #d94452 } 
		.s43 { fill: #f43d4d } 
		.s44 { fill: #c24452 } 
		.s45 { fill: #d5424f } 
		.s46 { fill: #ec404e } 
		.s47 { fill: #cc4953 } 
		.s48 { fill: #84955f } 
		.s49 { fill: #ee404f } 
		.s50 { fill: #f03f50 } 
		.s51 { fill: #ab4c5a } 
		.s52 { fill: #bf4955 } 
		.s53 { fill: #8fa85c } 
		.s54 { fill: #030d00 } 
		.s55 { fill: #8ea361 } 
		.s56 { fill: #0d1706 } 
		.s57 { fill: #081101 } 
		.s58 { fill: #050f01 } 
		.s59 { fill: #879463 } 
		.s60 { fill: #90a75e } 
		.s61 { fill: #020a00 } 
		.s62 { fill: #071201 } 
		.s63 { fill: #071003 } 
		.s64 { fill: #050d01 } 
		.s65 { fill: #030d01 } 
		.s66 { fill: #071102 } 
		.s67 { fill: #010a00 } 
		.s68 { fill: #040d01 } 
		.s69 { fill: #010e00 } 
		.s70 { fill: #0e1406 } 
		.s71 { fill: #040c02 } 
		.s72 { fill: #000c00 } 
		.s73 { fill: #011000 } 
		.s74 { fill: #101804 } 
		.s75 { fill: #6e6e6e } 
		.s76 { fill: #8da162 } 
		.s77 { fill: #071002 } 
		.s78 { fill: #061003 } 
		.s79 { fill: #050508 } 
		.s80 { fill: #051002 } 
		.s81 { fill: #798956 } 
		.s82 { fill: #000900 } 
		.s83 { fill: #081203 } 
		.s84 { fill: #030c01 } 
		.s85 { fill: #120025 } 
		.s86 { fill: #061001 } 
		.s87 { fill: #250b47 } 
		.s88 { fill: #071103 } 
		.s89 { fill: #140522 } 
		.s90 { fill: #030e00 } 
		.s91 { fill: #010c00 } 
		.s92 { fill: #0c1604 } 
		.s93 { fill: #170321 } 
		.s94 { fill: #1a082d } 
		.s95 { fill: #2b113d } 
		.s96 { fill: #0c2604 } 
		.s97 { fill: #37543c } 
		.s98 { fill: #80925a } 
		.s99 { fill: #040b01 } 
		.s100 { fill: #8a9d60 } 
		.s101 { fill: #040f01 } 
		.s102 { fill: #110937 } 
		.s103 { fill: #110722 } 
		.s104 { fill: #101707 } 
		.s105 { fill: #211748 } 
		.s106 { fill: #091205 } 
		.s107 { fill: #0d0232 } 
		.s108 { fill: #0b1704 } 
		.s109 { fill: #030c00 } 
		.s110 { fill: #081200 } 
		.s111 { fill: #829263 } 
		.s112 { fill: #010900 } 
		.s113 { fill: #0f1604 } 
		.s114 { fill: #040e01 } 
		.s115 { fill: #111a0a } 
		.s116 { fill: #020c00 } 
		.s117 { fill: #050e03 } 
		.s118 { fill: #8c9f63 } 
		.s119 { fill: #080f03 } 
		.s120 { fill: #060e02 } 
		.s121 { fill: #0b1402 } 
		.s122 { fill: #020900 } 
		.s123 { fill: #899b60 } 
		.s124 { fill: #0a0a0a } 
		.s125 { fill: #0f0f0f } 
		.s126 { fill: #1d1d1d } 
		.s127 { fill: #111111 } 
		.s128 { fill: #0e0e0e } 
		.s129 { fill: #0d0d0d } 
		.s130 { fill: #f8f8f8 } 
		.s131 { fill: #040404 } 
		.s132 { fill: #ecebec } 
		.s133 { fill: #bcbcbc } 
		.s134 { fill: #090909 } 
	</style>
	<g>
		<g>
			<path class="s0" d="m86.8 127.8c0-50.4 40.8-91.2 91.2-91.2 50.4 0 91.2 40.8 91.2 91.2 0 50.4-40.8 91.2-91.2 91.2-50.4 0-91.2-40.8-91.2-91.2z"/>
			<path fill-rule="evenodd" class="s1" d="m122.9 33.2q1 0.7 1 2-0.8-0.8-1-2z"/>
			<path fill-rule="evenodd" class="s2" d="m82.9 37.9q0.4 1.9 1.5 3.6 0.5 1.2 1.8 1.4 11.7-2.3 20.8-9.7-0.4 3.2-2.3 6-5.7 4.6-10.7 10-3.1 4.2-5.1 9-0.8 0.6-0.7 1.7-0.6 0.1-1-0.4-0.6-1.4-1.5-2.6-1.6 2.9-2.7 6-0.4 2.1 0.2 4.1-1.3-0.1-2.7-0.5 0.7 6.4 2.2 12.7 7 13.4 21.8 10.8 2.7-0.9 5.4-2.1 0.5 1.1-0.2 2.3-0.8 1.5-1.7 3-3 2.8-5.3 6.3-4.7 7.9 2.5 13.5 4.3 2.9 9.7 2.4-1.1 1.6-2.7 2.8-2.1 1-4.3 1.5-4.9 0.2-9.7 0.3 3.3 2 7.3 1.7 4.7 3.8 5.4 9.8-0.3 2.9-2 5-1.3-4.3-3.9-8 0.8 5 1.9 10 0.3 2.7-1.4 4.7-2.3 1.9-4.8 3.7-0.6-3.4-1.3-6.7-1.7-3.3-4-6 3 6.4 3 13.7-4.4 6.5-3.7 14.3 0.7 2.5 2.2 4.7-0.7 0.4-1.4-0.2-2.7-2.3-5.6-4.3-2-1.8-3.5-3.9-0.2 0.7 0.3 1.4 2.1 3.1 5 5.6 3.5 4.9-1.2 8.5-6.3 4.2-11.8 9.5 1.1-3.5 2-7.3 0.4-4.7-0.3-9.3-2-6.5-5.4-12.4-1.3-1.6-3.1-2.6-0.2 0.1-0.4 0.3 8 10.9 7.2 24.3-1.9 7.1-6.3 12.7-2.9-1.7-5.5-3.8-8.6-4.7-17-9.7-3.2-2.1-3.7-5.8 0.2-1.2 0.5-2.4 9.8-3.3 11.2-13.6-0.1-1.8-1.2-3-0.3 9.4-8.5 13.8-2.5 1-5 1.3 6-4.3 3.8-11.5-0.9-1.7-1.6-3.6-5.4-6.5-11.7-12-2.8-3-4.7-6.7-1.1-6.9 4.2-11.5 2.7-0.2 5.3-0.3 1.9-0.5 3-1.9-0.1-0.1-0.3-0.3-6.8 2.4-13-1.2-4.9-3.7 0.7-1.3 7.9 1 15-2.7 1.5-1.2 2.3-3-0.2-0.2-0.3-0.5-1.1 1.5-2.7 2.5-6.5 3-13.7 2-3.9-1.4-6.5-4.8-1.1-1.9-2.1-3.8 3 1.2 6.3 2.3 14.8 1.7 13.5-13.2-1.1-5.4-2.7-10.6-0.5-5.5 2-10.4 4.3-11 14.5-16.8 1.4-0.4 2.7-1 1.3-0.3 2.7 0 1.7 1.4 3.6 2.7 0.5 0.3 1 0-4.3-6.8-12.3-6.4 9-6.2 19.3-2.3 1.1 0.4 2-0.2-9.2-3.6-11.8-13 1.6 1.3 3.5 1.9 6 1.6 12 3.3 1 2.9 4 2.5-1.1-0.7-2.2-1.3-2.1-6.4 2-11.7 0.3 3.6 1.9 6.7z"/>
			<path fill-rule="evenodd" class="s3" d="m123.2 39.5q0.5 5 2.2 9.7 0.1 1.5 0.3 3 0.2 0.3 0.5 0.3 0 0.4 0 0.7 0.2 7.2-1.3 14.3-2.1 7.5-7.7 12.9-2.9 2.1-5.7 4.5-3.7 2-7.6 3.5-12.6 2.1-18.7-8.9-1-4.2-1.7-8.5 0.1-0.8 0.7-1.1 0.8 0.4 1.7 0.3-0.2-1.2-0.7-2.3-0.4-3.2 0.7-6.4 0.6 2.8-0.4 5.4 1.4 0 2.7 0 0-1.2 0-2.4 0.9-3.1 2.3-6 7.6-14.4 22.4-21.1 3.9-1.8 8-3.2 1.4 2.5 2.3 5.3z"/>
			<path fill-rule="evenodd" class="s4" d="m127.9 48.2q0.7 1 0.6 2.3-0.7-1-0.6-2.3z"/>
			<path fill-rule="evenodd" class="s5" d="m128.5 52.5q0.4 5 0.7 10 0.2 0.4 0.3 0.7-0.5 0-0.8-0.3-0.3-5.2-0.2-10.4z"/>
			<path fill-rule="evenodd" class="s6" d="m88.9 58.2q0.7 0.4 1.6 0.3-1.4 2.9-2.3 6-0.6 0.9-0.7 2-0.5 0-1 0 0-1.8 0.4-3.6-0.2-1.6-1.4-2.7-1.2 2.3-1.6 4.8 0.1 1.7 1.3 2.9 0.5 1.1 0.7 2.3-0.9 0.1-1.7-0.3-0.5-0.7-1.3-1.2-0.4-0.3-0.7 0 1.1 5.5 3 10.8 6.1 11 18.7 8.9 3.9-1.5 7.6-3.5-0.3 0.5-0.6 1 0.3 0.5 0.6 1 0.3 3.9-2.1 7-0.6 2.7-1 5.3 1.3-1.2 2.3-2.7 1.5-5.5 3.2-11 0.3 1.1 0.3 2.4-0.3 2.8-0.5 5.6 3.8-4 6.2-9 0.3 0.4 0.6 0.7-1.1 2.6-2.8 5-4.7 4.7-7.3 10.7-0.5-0.5-0.7-1-2 2.4-4.2 4.6-0.1-0.3-0.3-0.6 0.9-3.4 1.5-6.7-9.9 10.8 3.5 16.5 3.6 0.4 7-0.2 0.3 0 0.3 0.4-1.5 3.8-5 6 0.1-0.9-0.3-1.7 1.6-1.2 2.7-2.8-5.4 0.5-9.7-2.4-7.2-5.6-2.5-13.5 2.3-3.5 5.3-6.3 0.9-1.5 1.7-3 0.7-1.2 0.2-2.3-2.7 1.2-5.4 2.1-14.8 2.6-21.8-10.8-1.5-6.3-2.2-12.7 1.4 0.4 2.7 0.5-0.6-2-0.2-4.1 1.1-3.1 2.7-6 0.9 1.2 1.5 2.6 0.4 0.5 1 0.4-0.1-1.1 0.7-1.7z"/>
			<path fill-rule="evenodd" class="s7" d="m126.2 53.2q0.8 6.3-0.5 12.7-0.2 1-0.8 1.6 1.5-7.1 1.3-14.3z"/>
			<path fill-rule="evenodd" class="s3" d="m88.2 64.5q0 1.2 0 2.4-1.3 0-2.7 0 1-2.6 0.4-5.4-1.1 3.2-0.7 6.4-1.2-1.2-1.3-2.9 0.4-2.5 1.6-4.8 1.2 1.1 1.4 2.7-0.4 1.8-0.4 3.6 0.5 0 1 0 0.1-1.1 0.7-2z"/>
			<path fill-rule="evenodd" class="s8" d="m83.9 37.5q-0.6 0.1-1 0.4-1.6-3.1-1.9-6.7-4.1 5.3-2 11.7 1.1 0.6 2.2 1.3-3 0.4-4-2.5-6-1.7-12-3.3-1.9-0.6-3.5-1.9 2.6 9.4 11.8 13-0.9 0.6-2 0.2-10.3-3.9-19.3 2.3 8-0.4 12.3 6.4-0.5 0.3-1 0-1.9-1.3-3.6-2.7-1.4-0.3-2.7 0-1.3 0.6-2.7 1-10.2 5.8-14.5 16.8-2.5 4.9-2 10.4 1.6 5.2 2.7 10.6 1.3 14.9-13.5 13.2-3.3-1.1-6.3-2.3 1 1.9 2.1 3.8 2.6 3.4 6.5 4.8 7.2 1 13.7-2 1.6-1 2.7-2.5 0.1 0.3 0.3 0.5-0.8 1.8-2.3 3-7.1 3.7-15 2.7-5.6-2.4-0.7 1.3 6.2 3.6 13 1.2 0.2 0.2 0.3 0.3-1.1 1.4-3 1.9-2.6 0.1-5.3 0.3-5.3 4.6-4.2 11.5 1.9 3.7 4.7 6.7 6.3 5.5 11.7 12 0.7 1.9 1.6 3.6 2.2 7.2-3.8 11.5 2.5-0.3 5-1.3 8.2-4.4 8.5-13.8 1.1 1.2 1.2 3-1.4 10.3-11.2 13.6-0.3 1.2-0.5 2.4 0.5 3.7 3.7 5.8 8.4 5 17 9.7 2.6 2.1 5.5 3.8 4.4-5.6 6.3-12.7 0.8-13.4-7.2-24.3 0.2-0.2 0.4-0.3 1.8 1 3.1 2.6 3.4 5.9 5.4 12.4 0.7 4.6 0.3 9.3-0.9 3.8-2 7.3 5.5-5.3 11.8-9.5 4.7-3.6 1.2-8.5-2.9-2.5-5-5.6-0.5-0.7-0.3-1.4 1.5 2.1 3.5 3.9 2.9 2 5.6 4.3 0.7 0.6 1.4 0.2-1.5-2.2-2.2-4.7-0.7-7.8 3.7-14.3 0-7.3-3-13.7 2.3 2.7 4 6 0.7 3.3 1.3 6.7 2.5-1.8 4.8-3.7 0.4 0.6 0.4 1.3-2.7 2.3-5.7 4.2-4.9 6.1-3.8 13.8 1.6 5.3 6.1 8.2-4.5-0.4-8.3-3.2-0.2 0.1-0.3 0.2 1.5 3.5-0.9 6.5-1.4 1-2.5 2.3-3.9 2.4-7.3 5.5 0.6 0.6 1 1.2 3.2 9.6 9.3 17.7 1.4 1.5 2.7 3 18.1 17.3 41.7 26.3 0.9-0.8 1.3-2 0.5 0 0.7 0.5-0.6 1-0.7 2.2 7.9 2.5 16 4 0.7 0.4 1.7 0.5 14.8 2 27.5-5.9-0.3 1.3-1.5 2.2-2.3 1.4-4.4 3 3.3 1.3 6.7 0.8 0.3-0.7 0.8-1.3 0.9 0.9-0.1 1.7 0.3 0.1 0.6 0.3 0.8-0.4 1.4-1 0.6 0.6 0 1.2 5.1 0.3 10.3 0 6.3-1.2 12.3-3.2 0.2-2.2 0.9-0.3 6-2.7 11.8-5.7 0.3-2.6 1-5.2 0.5-0.3 0.7 0.4-0.7 1.9 0 3.8 2.4-1.3 4.6-2.8 0.4-0.9 0.5-1.9 0.5 0.4 0.7 1 1.9-1.4 3.5-3.1-0.8-1.2 0.7-1.2 0.1-1.8 1.3-0.3 3.6-2.5 6.7-5.7 4.2-2.6 4-7.7 0.8-0.5 0.6 0.7-0.4 1.5-0.5 3 2.9-2.8 5.7-5.7-0.1-1.4-1.2-2.6 0.3-0.6 0.7-0.2 0.9 0.8 1.5 1.8 0.8-1.3 2-2.3 0.4-0.6-0.2-1-0.8-0.3-1.3-1 0.2-0.2 0.5-0.3 1 0.6 2.2 0.5 2.8-3.6 5-7.5-1.2-0.6-2.4-1.2 0.3-0.4 0.7-0.5 2.2 1.7 3.3-0.8-1.6-0.2-3-1 2-0.7 4-0.5 2.8-5.5 4.7-11.4-1-0.3-1.7-1 1.1-0.5 2.4-0.3 1.3-5 3-9.8-0.2-0.3-0.4-0.5-2 1.1-4.3 1.6-0.6 0-1-0.5 2.9-1 6-1.8 2.3-9 4-18.2-0.2-1.1-1-1.8 0.7 0 1.3 0 0.3-3.6 1.4-7-2.8-1.1 0.1-1.7 0.7-4.5 1.5-9-0.6-0.1-1.3-0.3 0.7-0.6 1.5-1 0.4-2 0.8-4 0.4-0.7 0.7-1.5-2.6-0.9 0.3-1.3 0.4-0.5 0.4-1.2 1.7-5.8 6-10.2-2.2 0.3-4 1.7-2.6 2.3-4.7 5-0.5 0.2-1 0.2 2.2-6-0.8-11.7-1.8 2.9-3.2 6-1 1.9-2.8 3-4.6-2.6-8.5-6-0.6 1.3-0.2 2.7 0.9 2.1 1.3 4.3-0.4-0.4-0.8-0.8-3.3-1-6.3-2.5-0.2 4.8 3.3 8.3-0.4-0.1-0.7 0.2 1.1 0.6 0.7 1.5-3.6-2.8-4.5-7.4-0.3 0.6-0.8 0.9-1.3 0.1-2.4 0.5-0.9-0.7-0.3-1.7 0.5 0 0.7-0.5-0.4-0.7-0.4-1.5-0.1-2.3 0.2-4.7 0.5-0.6 0.2-1.1 0.3-0.6 1-0.5-1.3 3.8 0 7.6 0.7 0.4 1.5 0.7-0.1-2.3-0.5-4.7 3.3 1.2 6.5 2.7 0-0.2 0.1-0.3-1.7-1.7-2.8-3.7-1.3 1.2-0.5-0.7-0.3-0.5-0.5-1-0.5 1-1 2-0.6-1.1 0.5-2.1-0.8-0.5-1.3-1.2 0.7-0.6 1-1.5-0.7-0.8 0-1.5 2.5-0.1 0.6 1.2 0.4 0.5 0.5 1.1 0.4-0.7 1.2-0.5-1.2 1.2-0.2 2.5 1.3-1.1 0.5 0.7 0.6 1.4 1.5 2.7 0.3-2.5 0.5-5 0.9-0.1 1.7 0.1 1.6 2.7 4 4.5 1.8 1.4 3.7 2.9 0.3 0.3 0.6 0 3.1-4.9 6-9.9 3.2 4.9 2.9 10.7 1.2-1.3 2.1-2.8-2.1-2 0.7-1.2 0.6-2.5 1.7-4.8-0.3-0.8-1-1.2 0.6-0.2 1.3-0.3 0.4-1.6 1-3-2.8-1.4 0.3-1.4 0.1-2 0.4-4-3.4-0.3 0-0.6 0-2.4-0.2-4.7-0.7-0.4-1.5-0.7-0.4-0.2-0.3-0.6 0.8 0 1.6 0-0.2-2.3-1.1-4.4-0.7-0.4-1.5 0-0.3 0.1-0.4-0.1 0.7-0.7 1.4-1.4-2.7-5.8-7-9.6-0.5-0.3-1-0.5-1.3 0.8-2.7 0.5 0.9-0.6 2-1-1.8-1.7-3.3 0.1-0.2-0.1-0.4-0.3 0.4-0.5 0.7-1-0.3-0.2-0.7-0.3-0.8 0.5-1.5 1.3-0.8-0.4-0.1-1-1-0.6-2-0.2 0.7 0.6-0.2 0.9-1.1-1.2-2.2-0.2 1.9 1.1 4 1.7 1.6 0.9 2.5 2.5 0.9-0.7 1.9 0-1.9 0.5-1.2 2.3 3.1 1.2 1.8 4.3-0.4 0.3-1 0.4 0-0.7 0-1.4 0-0.5 0-1-0.1-2.1-2.3-1.6 0.1-0.8-0.3-1.4-1.9-4.2-6.4-3.3-1.2 0.2-0.6-0.7 0.5-0.3 0.6-1-0.3-0.6-0.3-1.1 0.6-0.7 1.3-1.2 0.4-0.5 1-0.7 1.6 0.3 2.5-1 0.9 1.1 2.2 0.4 0.5-0.8 1.2-1.4 0.3 1-0.5 1.5 3.2 0.6 6 2.5 0.9-0.6 1.5-1.6 0.3 1.2-0.5 2.1 0.9 1 2 2 0.7-0.1 1.3 0.2-0.2 0.5-0.7 0.8 1.1 1.1 1.9 2.5 1-0.9 2.1-0.6-0.9 0.5-1.6 1.3 0.7 1.7 1.8 3.3 1.4-1.6 3.2-2-1.4 1.6-2.7 3 0.4 1.5 1.3 2.7-0.1 0.3-0.3 0.5 0.4 1.9 1 3.8 3.9 0.8 0 1-0.2 2.6 0.3 5-1 2.2-1.3 4.5 3.4 1.9-0.3 1.2-0.3 1.5-0.5 3 2.3-1.2 4.6 0 0.4 0.7-0.1 1.3-2 1.3-2.7 3.5 0.8 0.2 1.7 0.4 0.2 0.2 0.3 0.6-2.6 2.4-4.8 5.2-1.8 3.6-3.2 7.3 0.3 0.4 0.7 0.5-2.2 2.1-1.9 5.2 1-0.8 1.9-0.7-1.1 1.2-2.5 2-0.9 4.7-1.5 9.4 0.4 0.1 0.8 0.3 1.7-0.5 3.5-0.5-2.1 1.4-4.5 1.8-0.8 3.9-1.5 7.7 1.7-0.1 3.3 0.2-1.7 0.9-3.6 0.8-2.9 15.5-7 30.3 1.1-0.1 2 0.4-1.7-0.1-2.9 1-2.4 7.9-6.1 14.8 0.5 0.4 1 0.8-0.9 0.1-1.7 0.4-2.3 3.9-4.7 7.8 0.7 0.7 1.4 1.3-1.2 0-2.4-0.3-8.9 10.8-19.6 19.8-0.5 0.4-0.4 1-0.7 0-1.3 0.4-2.7 2.3-5.7 4.1-0.7 1.6-1.1 3.2-0.1-1-0.5-2-7.3 4.9-15.4 8.5-7.9 2.3-16 4-11.4 1.4-22.6-1.3-22 2.6-42.4-6-18.3-8.5-34-21-6.2-5.4-10.5-12.2-4.1-7.3-7.1-15-4.8 4.4-8.9 9.3-3.1-2.6-6.5-4.8-9.5-5.1-18.3-11.3-4.1-3.6-3.3-8.9-4.3 0.9-8.7 1.4-0.1-0.9 0.3-1.5 14.8-5.3 5.2-17.9-4.8-5.3-10-10.3-2.5-3-4-6.7-1.1-7 3.8-12.1-6.4-1.8-8.1-8.2-4.1-4.6-5.9-10.5 0.2-0.3 0.4-0.5 5.6 4.3 12.6 5.3 9-0.4 9-9.5-1-6.3-2.8-12.5-0.7-6.3 2.3-12 2.7-5.9 6.7-11-2.9-14.1 4.3-26.6 5.9-10.1 16-15.7 5.1 1.3 8.7 5 2.7 3.3 5.2 6.7 1.7-1.9 3.1-4-1.3 5.4 0.9 10.6z"/>
			<path fill-rule="evenodd" class="s9" d="m288.9 99.2q3.3-0.5 1.1 1.3-0.6 1.3-1 2.7-1.9 0.8-3.8 1.2 1.1-2.1 2.2-4.2 0.8-0.5 1.5-1z"/>
			<path fill-rule="evenodd" class="s10" d="m273.9 96.9q0.1 0.7 0.6 1.3-0.7 0.5-1.6 0.3 0-0.7-0.2-1.3-0.3 0.7-0.7 0-0.2 0.5-0.5 0.8-2.7-0.2-3.3 2.5-1.3 0.3-2.3 1 1.4 1.5 3.3 0.7-0.6 1.1-1 2.3-2.4-1.8-4-4.5-0.8-0.2-1.7-0.1-0.2 2.5-0.5 5-0.9-1.3-1.5-2.7 0.8-1.8-0.5-0.7-1-1.3 0.2-2.5-0.8-0.2-1.2 0.5-0.1-0.6-0.5-1.1 1.9-1.3-0.6-1.2-0.2-1.2-0.7-2.3 2.7-1.2-0.3-1-0.1-1.1 0.3-2-1.3-1.3-0.8-3 0.4 1.7 2.1 2.1 2.6 0.3 5-0.3-0.5 0.5-1.3 0.7 0.5 3.7 2.2 7.1-0.4-2.6-0.9-5.3 0.3 0 0.5 0.3 0.6 2.6 1.2 5.2-0.1 0.2-0.2 0.5-0.6-0.6-1.1 0 1.1 0.5 1.6 1.7 0.2-0.7 0.4-1.4 1-0.7 2.3-0.8-0.5-0.2-1-0.2-0.2-1.7 0.5-3.3 0.2 0.2 0.3 0.3 2.8-3.5 1.2 0.7-0.5 0-1 0-0.1 0.8 0.3 1.3 1.6 0.2 3-0.3-0.3-0.3-0.6-0.7 0.8 0 1.6 0.4 0.5-2.7 0.4-5.4-0.7 0.1-1-0.3-0.5-0.4-0.4-1-2.8 0-5.6 0 0.7-0.5 1.6-0.7 3.3 1.2 5.5-1.3 0.6 4.3 0.9 8.7z"/>
			<path fill-rule="evenodd" class="s11" d="m266.5 99.5q2.3-0.1 0.4 0.7-0.4-0.2-0.4-0.7z"/>
			<path fill-rule="evenodd" class="s12" d="m270.9 96.5q0.3 0.4 0.6 0.7-1.4 0.5-3 0.3 0-0.5 0.4-0.8 0.9-0.3 2-0.2z"/>
			<path fill-rule="evenodd" class="s13" d="m284.9 78.5q0.5 0.5 1.3 0.4 0.7 1.7 0.7 3.6-0.7-0.1-1 0.4-0.1 0.4 0.3 0.6 0.8 0.3 1.5 0.7 0.2 2.3 0.2 4.7-3.4 0.3 0 0.6-0.3 2-0.4 4-3.1 0-0.3 1.4-0.6 1.4-1 3-0.7 0.1-1.3 0.3 0.7 0.4 1 1.2-1.1 2.3-1.7 4.8-2.8-0.8-0.7 1.2-0.9 1.5-2.1 2.8 0.3-5.8-2.9-10.7-2.9 5-6 9.9-0.3 0.3-0.6 0-1.9-1.5-3.7-2.9 1.6-0.8 1.7-2.6 0.4 0.5 0.5 1.3 1-0.6 2.1 0 0.4-0.2 0.7-0.3-0.7-0.4-1.3-0.9 0.8-0.8 1.6-1.8-0.5-0.4-1-0.8 1.3-0.2 2 0.8-1.1 0.5-1.1 1.7 1-0.4 1.8-1-0.2-0.4-0.3-0.7 1-1.4 2.5-2.3 0.3-0.7 0-1.4-0.2 0.2-0.4 0.4-1.1-1.7 0.5-2.7 0.6-0.5 1.4-0.3 0 1 0 2 0.5 0 1 0 0 0.5 0 1 1 0.1 2 0.5-0.7 0.2-1.4 0.1 0 0.5 0 1 1.4-0.1 2.7-0.3 0.1-1.4-1.3-1.7-1.6-2.7 0.8-4.6 0.4-4.1-0.2-5.4-0.5 0-1 0 0.3-0.3 0.7-0.6-0.3-0.2-0.5-0.4-0.7 0.3-1.5 0.4 1.5-1.8-1-1.7-0.3-1.8 0.7-3 0.6-1.3 1-2.7-0.1-1.2-1-1.8-0.9 0.4-2 0.3 0.4-0.5-0.4-1 0.2-1 1-1.5 0.1-0.7-0.1-1.3-1-0.7-0.5 0.2-0.4 1-0.5 2.1-0.2 0.7-0.9 1 1.3-3.1-1.8-4.3-0.7-1.8 1.2-2.3-1-0.7-1.9 0-0.9-1.6-2.5-2.5-2.1-0.6-4-1.7 1.1-1 2.2 0.2 0.9-0.3 0.2-0.9 1-0.4 2 0.2-0.7 0.6 0.1 1 0.7-0.8 1.5-1.3 0.4 0.1 0.7 0.3-0.3 0.5-0.7 1 0.2 0.2 0.4 0.3 1.5-1.8 3.3-0.1-1.1 0.4-2 1 1.4 0.3 2.7-0.5 0.5 0.2 1 0.5 4.3 3.8 7 9.6-0.7 0.7-1.4 1.4 0.1 0.2 0.4 0.1z"/>
			<path fill-rule="evenodd" class="s14" d="m274.5 100.2q0.2 0 0.4 0 0.1 0.3 0.3 0.7-0.8 0.6-1.8 1 0-1.2 1.1-1.7z"/>
			<path fill-rule="evenodd" class="s15" d="m113.9 85.5q-1.7 5.5-3.2 11-1 1.5-2.3 2.7 0.4-2.6 1-5.3 2.4-3.1 2.1-7 1.1-0.8 2.4-1.4z"/>
			<path fill-rule="evenodd" class="s16" d="m276.5 76.5q0.8 4.4-0.3 8.7-1-0.1-1.7 0.7 0.3 2.9 0.4 6.1-0.1 2.4-0.2 4.9-0.4 0.6-0.5 0 0-5.9-0.2-11.7 2.6-1.2 2.5-4-0.2-2.3-1-4.3 0.6-0.1 1-0.4z"/>
			<path fill-rule="evenodd" class="s13" d="m265.9 90.2q2.8 0 5.6 0-0.1 0.6 0.4 1 0.3 0.4 1 0.3 0.1 2.7-0.4 5.4-0.8-0.4-1.6-0.4-1.1-0.1-2 0.2-0.4 0.3-0.4 0.8-0.4-0.5-0.3-1.3 0.5 0 1 0 1.6-4.2-1.2-0.7-0.1-0.1-0.3-0.3-0.7 1.6-0.5 3.3 0.5 0 1 0.2-1.3 0.1-2.3 0.8-0.2 0.7-0.4 1.4-0.5-1.2-1.6-1.7 0.5-0.6 1.1 0 0.1-0.3 0.2-0.5-0.6-2.6-1.2-5.2-0.2-0.3-0.5-0.3-0.6-0.8 0-1.7 1.2-0.7 2.4-1.3z"/>
			<path fill-rule="evenodd" class="s17" d="m117.2 113.5q-3.4 0.6-7 0.2-13.4-5.7-3.5-16.5-0.6 3.3-1.5 6.7 0.2 0.3 0.3 0.6 2.2-2.2 4.2-4.6 0.2 0.5 0.7 1 2.6-6 7.3-10.7 1.7-2.4 2.8-5 0.3-0.6 0.5-1.3 0.3 2.6 0.2 5.3 1.2 0 2.3 0-0.4 2.3 1.4 3.8 1.9 0.8 4 1.4-1.9 0.2-3.7 1-0.5 0.5-0.2 1.1 1.6 1.1 3.5 1.4 0 1.5-0.5 3-1.9 6-4.1 12-5.6 1.7-8.5-3.4 0.5-1.4 0.3-3-2.2-0.4-2.2 2 0.5 3.5 3.7 5z"/>
			<path fill-rule="evenodd" class="s18" d="m282.2 76.9q3.5 9.4 0.7 19-0.6 0.6-0.7-0.2 2.9-11-2.3-21.2-0.7 0.5-1.4 1-0.5-0.4 0-1 0.5-0.6 1-1.1-1.4-2.1-2.6-4.2 0.2-0.5 0.6-0.2 3.1 3.5 4.7 7.9z"/>
			<path fill-rule="evenodd" class="s19" d="m119.9 84.5q-2.4 5-6.2 9 0.2-2.8 0.5-5.6 0-1.3-0.3-2.4 2.9-2.4 6-5 0.6 0.3 0.6 1-0.4 1.5-0.6 3z"/>
			<path fill-rule="evenodd" class="s20" d="m264.9 80.5q0.4 0.4 0.3 1 1.7-0.1 3.3 0.2 0.8 0.6 1 1.5-1.6-2-4-1-1.3 0.4-2.6 0.7 0.6-0.8 1.6-1-0.9-0.7-1.8 0-0.3-0.5-0.2-1-1.7 0.2-3.3 0.6-0.5 1.1-0.7 2.4 3-0.3 1.7 2.5 0.2 1 0.7 1.8-1 0-1.2-1-0.5-1.4 0.5-2.5-0.9-0.4-1.5 0.5-0.1 1.1-0.8 1.8-1.4 0.3-2.7 0.2-0.2-1.6 0.3-3 0.5-1.5 2-2 0.5-0.4 0.4-1-1.8-0.2-3 1 0-0.7 0-1.3 1.1 0 2.3-0.2-0.3-0.4-0.7-0.5-0.3-1.9-1.3-3.3 0.5-0.8 1.2-1.4-0.6 7.7 6.5 4.4 0.6 0.4 1 1.1 0.8 0.4 1-0.5z"/>
			<path fill-rule="evenodd" class="s21" d="m282.2 76.9q1.3 2 2.2 4.3 0.6 5.3 0.3 10.7-0.6 2-1.3 4-0.4 0.6-0.5 0 2.8-9.6-0.7-19z"/>
			<path fill-rule="evenodd" class="s22" d="m279.9 81.2q0.7-0.7 0.6 0.5-0.1 1-0.6 1.8-0.5-1.1 0-2.3z"/>
			<path fill-rule="evenodd" class="s23" d="m254.5 77.2q0.1 1.1-0.8 1.7-0.3 1.6-0.2 3.3 0.7 0 1.4 0-1.2 1.3-2.2-0.3-0.2-1.4 0.2-2.7 0.8-1 1.6-2z"/>
			<path fill-rule="evenodd" class="s24" d="m255.2 76.9q1 1.4 1.3 3.3 0.4 0.1 0.7 0.5-1.2 0.2-2.3 0.2 0 0.6 0 1.3-0.7 0-1.4 0-0.1-1.7 0.2-3.3 0.9-0.6 0.8-1.7 0.4-0.2 0.7-0.3z"/>
			<path fill-rule="evenodd" class="s25" d="m285.9 82.9q0.3-0.5 1-0.4 0-1.9-0.7-3.6-0.8 0.1-1.3-0.4 0.8-0.4 1.5 0 0.9 2.1 1.1 4.4-0.8 0-1.6 0z"/>
			<path fill-rule="evenodd" class="s26" d="m267.5 64.2q-0.7 0.5-1.3 1.2 0 0.5 0.3 1.1-3.2-1.2-1.5 1.4 0.4-0.4 0.9-0.4-0.6 0.9 0.6 0.7 0 0.3-0.3 0.3-1.8 0.9-3.2 2.4 0.2-1.6 0.7-3-1.3-2.3-3.8-1.5-1 2.3 1.6 2.1 0.2 0.4 0.7 0.4 0.1 0.7-0.3 1.3-1.4-0.8-3-0.7-1.6-0.1-2.7 0.7-3 1.3-1.3 4.2 1.3 0.1 2.6-0.4 1-1 2-1.8 2.2-1 4.7-1 0.3 0.3 0.7 0.7-2.1 0.3-4 0.8-1.1 0.9-2.4 1.7-0.8 1.5-1.3 3.1 1 3.5 4.3 1.9 2.1-1.1 2.5-3.2-2.5-1.5-4.8 0.3-0.5-0.6 0.2-1.3 2.4-1.8 5.1-0.3 0.7 0.8 0.9 2 0.9-1.2 2.1-2-0.3 0.5-0.6 1 1.2 0.6 2.3 0 0.8 0.4 0.7 1.3-1.4-0.8-3-0.5-0.3 0.6 0 1.5-1.4-0.1-2.5 0.3-0.5 1.3 0.5 2-0.2 0.9-1 0.5-0.4-0.7-1-1.1-7.1 3.3-6.5-4.4-0.7 0.6-1.2 1.4-0.3 0.1-0.7 0.3-0.8 1-1.6 2 0-0.7-0.2-1.3-0.2 0.1-0.3 0.3-0.3-0.6-0.9-0.7-1.3-1.8 0-3.6 0.5-0.2 0.7-0.7 2-3.1 4-6.5 1.9-0.4 3.3-1.7 2-0.3 4 0.2 2-0.5 4-1z"/>
			<path fill-rule="evenodd" class="s27" d="m269.2 75.9q5-0.4 5.3 4.8-0.3 4.4-4.6 3-0.3-0.2-0.4-0.5-0.2-0.9-1-1.5-1.6-0.3-3.3-0.2 0.1-0.6-0.3-1-1-0.7-0.5-2 1.1-0.4 2.5-0.3-0.3-0.9 0-1.5 1.6-0.3 3 0.5 0.1-0.9-0.7-1.3z"/>
			<path fill-rule="evenodd" class="s13" d="m278.5 74.5q-0.8 0.5-1 1.5 0.8 0.5 0.4 1 1.1 0.1 2-0.3 0.9 0.6 1 1.8-0.4 1.4-1 2.7-1 1.2-0.7 3 2.5-0.1 1 1.7-0.3 0.3-0.7 0.6 0.3 0.2 0.5 0.4 0.7-0.4 1.5-0.4 0.5 0 1 0 0.6 1.3 0.2 5.4-2.4 1.9-0.8 4.6 1.4 0.3 1.3 1.7-1.3 0.2-2.7 0.3 0-0.5 0-1 0.7 0.1 1.4-0.1-1-0.4-2-0.5 0-0.5 0-1-0.5 0-1 0 0-1 0-2-0.8-0.2-1.4 0.3-1.6 1-0.5 2.7 0.2-0.2 0.4-0.4 0.3 0.7 0 1.4-1.5 0.9-2.5 2.3-0.2 0-0.4 0-0.7-1-2-0.8 0.5 0.4 1 0.8-0.8 1-1.6 1.8 0.6 0.5 1.3 0.9-0.3 0.1-0.7 0.3-1.1-0.6-2.1 0-0.1-0.8-0.5-1.3-0.4 0.1-0.7 0.3-1.9 0.8-3.3-0.7 1-0.7 2.3-1 0.6-2.7 3.3-2.5 0.3-0.3 0.5-0.8 0.4 0.7 0.7 0 0.2 0.6 0.2 1.3 0.9 0.2 1.6-0.3-0.5-0.6-0.6-1.3 0.1 0 0.3 0 0.1 0.6 0.5 0 0.1-2.5 0.2-4.9-0.1-3.2-0.4-6.1 0.7-0.8 1.7-0.7 1.1-4.3 0.3-8.7 0.7-0.3 0.9-1 0.1-1.1 0.5-2.1-0.5-0.9 0.5-0.2 0.2 0.6 0.1 1.3z"/>
			<path fill-rule="evenodd" class="s28" d="m277.5 94.2q0.5 0 0.7 0.5-0.4 0.7-0.8 1.5-0.3-0.3-0.5-0.5 0.5-0.7 0.6-1.5z"/>
			<path fill-rule="evenodd" class="s29" d="m277.9 89.2q0.5 0.2 0.1 0.7-0.7 0.3-1.3 1-0.3-0.3-0.5-0.5 0.9-0.6 1.7-1.2z"/>
			<path fill-rule="evenodd" class="s30" d="m281.5 86.5q-0.8 0-1.5 0.4-0.2-0.2-0.5-0.4 0.4-0.3 0.7-0.6 0.8-0.1 1.5-0.4 0.2 0.2 0.5 0.4-0.4 0.3-0.7 0.6z"/>
			<path fill-rule="evenodd" class="s31" d="m272.9 71.5q0.4 0.6 0.3 1.4 2.2-0.5 2.3 1.6-0.4-0.6-1-1-0.9 0.7-1.6 1.5 1.2 1.7 2.6 0.5 0 0.7 0 1.4 0.8 2 1 4.3 0.1 2.8-2.5 4 0.2 5.8 0.2 11.7-0.2 0-0.3 0-0.3-4.4-0.9-8.7-2.2 2.5-5.5 1.3-0.9 0.2-1.6 0.7-1.2 0.6-2.4 1.3-0.6 0.9 0 1.7 0.5 2.7 0.9 5.3-1.7-3.4-2.2-7.1 0.8-0.2 1.3-0.7-2.4 0.6-5 0.3-1.7-0.4-2.1-2.1-0.5 1.7 0.8 3-0.4 0.9-0.3 2 3-0.2 0.3 1 0.5 1.1 0.7 2.3-0.7 0.7 0 1.5-0.3 0.9-1 1.5-1-0.2-1.9-0.7-0.2 0.7-0.1 1.4-0.7-0.1-1 0.5 0.3 0.5-0.2 1.1-0.3 2.4-0.2 4.7-0.1 0-0.3 0 0-0.2 0-0.3-0.6-3.4 0.3-6.7 0.4-1.3 0.7-2.7 4 2.4 2-2-0.3-0.3-0.7-0.6 0.7-1.5-0.3-2.7-0.6-0.6-1 0-0.6-0.4 0-1 0.6-0.4 0.7-1.3-0.1-0.7-0.2-1.4-2.2-0.7-4-2.3-0.6-1.1-0.5-2.3 1.5-1.2 0.7-3 0.1-1.6 1-2.9-0.3-0.2-0.4-0.5 0.6 0.1 0.9 0.7 0.1-0.2 0.3-0.3 0.2 0.6 0.2 1.3-0.4 1.3-0.2 2.7 1 1.6 2.2 0.3 1.2-1.2 3-1 0.1 0.6-0.4 1-1.5 0.5-2 2-0.5 1.4-0.3 3 1.3 0.1 2.7-0.2 0.7-0.7 0.8-1.8 0.6-0.9 1.5-0.5-1 1.1-0.5 2.5 0.2 1 1.2 1 3.1 2 6.3-0.2 2.9-2.9-0.7-4.8-0.5-0.4-1.3-0.5 0.3-0.2 0.3-0.5 2.4-1 4 1 0.1 0.3 0.4 0.5 4.3 1.4 4.6-3-0.3-5.2-5.3-4.8-1.1 0.6-2.3 0 0.3-0.5 0.6-1 2.4-1.1 5-1.9 0.5-0.7 0.4-1.5z"/>
			<path fill-rule="evenodd" class="s32" d="m261.9 96.2q0.7 0.2 0.6 1-3.4 0.9-0.6-1z"/>
			<path fill-rule="evenodd" class="s33" d="m260.5 93.5q0.7 0.5 0 1-1 1-2.3 0.9 1.4-0.7 2.3-1.9z"/>
			<path fill-rule="evenodd" class="s34" d="m269.2 92.9q0.3 0 0.3 0.3-0.6 1.4-2 1.2 0.8-0.9 1.7-1.5z"/>
			<path fill-rule="evenodd" class="s35" d="m271.9 91.2q-0.2-0.7 0.3-1.3 0.6 0.8-0.3 1.3z"/>
			<path fill-rule="evenodd" class="s36" d="m257.9 88.2q1.7 0.2 3 1.5-2.3 0.5-3-1.5z"/>
			<path fill-rule="evenodd" class="s37" d="m269.9 85.2q3.5 0.7 0.6 3.2-0.9 0.4-1.6-0.2 1.1-1.3 1-3z"/>
			<path fill-rule="evenodd" class="s38" d="m251.9 83.5q2.2 0.7 1.6 3-2.9-0.5-1.6-3z"/>
			<path fill-rule="evenodd" class="s39" d="m262.9 82.9q-1.3 2.8 1 0.5 1.3-0.3 2.6-0.2 3.6 1.9 0.7 4.8-3.2 2.2-6.3 0.2-0.5-0.8-0.7-1.8 1.3-2.8-1.7-2.5 0.2-1.3 0.7-2.4 1.6-0.4 3.3-0.6-0.1 0.5 0.2 1 0.9-0.7 1.8 0-1 0.2-1.6 1z"/>
			<path fill-rule="evenodd" class="s40" d="m255.5 84.2q0.9-0.8 1.9-1.3 0.3 0 0.6 0.3 0.5 1.8-0.5 3.3-0.9 0.5-2 0.4 0-1.4 0-2.7z"/>
			<path fill-rule="evenodd" class="s41" d="m265.5 82.2q0 0.3-0.3 0.5 0.8 0.1 1.3 0.5-1.3-0.1-2.6 0.2-2.3 2.3-1-0.5 1.3-0.3 2.6-0.7z"/>
			<path fill-rule="evenodd" class="s42" d="m264.2 71.2q0.5 0 1 0 0 1 0 2-2.2 0.1-0.7 1.7-2.7-1.5-5.1 0.3-0.7 0.7-0.2 1.3 2.3-1.8 4.8-0.3-0.4 2.1-2.5 3.2-3.3 1.6-4.3-1.9 0.5-1.6 1.3-3.1 1.3-0.8 2.4-1.7 1.9-0.5 4-0.8-0.4-0.4-0.7-0.7z"/>
			<path fill-rule="evenodd" class="s43" d="m260.2 76.2q1.3-0.2 2.3 0.7-0.8 0.8-0.6 2-1.5 0.4-3 0.5-0.9-1.1-0.7-2.5 1.2 0.2 2-0.7z"/>
			<path fill-rule="evenodd" class="s44" d="m275.5 74.5q0 0.5 0 1-1.4 1.2-2.6-0.5 0.7-0.8 1.6-1.5 0.6 0.4 1 1z"/>
			<path fill-rule="evenodd" class="s45" d="m252.5 73.9q1.2 0.3 1.7 1.5-0.9 1-2 1.8-0.7-1.8 0.3-3.3z"/>
			<path fill-rule="evenodd" class="s46" d="m256.2 70.2q2.3-0.2 4.7 0.3-0.5 1-1.4 1.7-1 0.8-2 1.8-1.3 0.5-2.6 0.4-1.7-2.9 1.3-4.2z"/>
			<path fill-rule="evenodd" class="s47" d="m266.2 68.5q-0.9 1.3-2.3 2.2 0.2 0.2 0.3 0.5-2.5 0-4.7 1 0.9-0.7 1.4-1.7-2.4-0.5-4.7-0.3 1.1-0.8 2.7-0.7 1.6-0.1 3 0.7 0.4-0.6 0.3-1.3 0.5 0 1 0-0.5-2.5-3-2.4 0.1 1.4 1.3 2-2.6 0.2-1.6-2.1 2.5-0.8 3.8 1.5-0.5 1.4-0.7 3 1.4-1.5 3.2-2.4z"/>
			<path fill-rule="evenodd" class="s48" d="m84.2 69.9q-0.6 0.3-0.7 1.1 0.7 4.3 1.7 8.5-1.9-5.3-3-10.8 0.3-0.3 0.7 0 0.8 0.5 1.3 1.2z"/>
			<path fill-rule="evenodd" class="s49" d="m272.9 71.5q0.1 0.8-0.4 1.5-2.6 0.8-5 1.9-1.2 0.8-2.1 2-0.2-1.2-0.9-2-1.5-1.6 0.7-1.7 0-1 0-2-0.5 0-1 0-0.1-0.3-0.3-0.5 1.4-0.9 2.3-2.2 0.3 0 0.3-0.3 4.5-0.9 6.4 3.3z"/>
			<path fill-rule="evenodd" class="s50" d="m262.2 68.9q-0.5 0-0.7-0.4-1.2-0.6-1.3-2 2.5-0.1 3 2.4-0.5 0-1 0z"/>
			<path fill-rule="evenodd" class="s51" d="m257.5 67.2q0.8 0.2 0.7 1-2.7 0.8-0.7-1z"/>
			<path fill-rule="evenodd" class="s52" d="m266.5 66.5q-0.1 0.7-0.6 1-0.5 0-0.9 0.4-1.7-2.6 1.5-1.4z"/>
			<path fill-rule="evenodd" class="s53" d="m65.5 20.5q2.7 1.2 5 2.9 4.5 4 7.9 8.8-1.2 4-1.4 8.3-5.5-1.9-11.1-3.5-3-1.1-5.5-2.8-0.5 7.7 5.5 12.5-10.7-0.3-18.5 6.8-0.3 0.7-0.2 1.4 3.2-0.8 6.5-1.4 1.8 0.3 3.5 0.9-5.6 1.5-9.8 5.5-3.1-15.3 6.3-27.7 5.2-6.6 11.8-11.7z"/>
			<path fill-rule="evenodd" class="s54" d="m269.9 101.9q-0.1 1.8-1.7 2.6 0.4-1.2 1-2.3 0.3-0.2 0.7-0.3z"/>
			<path fill-rule="evenodd" class="s35" d="m282.5 99.9q1.2 1.3 0 3-0.2-1.5 0-3z"/>
			<path fill-rule="evenodd" class="s55" d="m256.9 100.2q0.5 0.7 1.3 1.2-1.1 1-0.5 2.1 0.5-1 1-2 0.2 0.5 0.5 1-0.8 1.9 0.5 0.7 1.1 2 2.8 3.7-0.1 0.1-0.1 0.3-3.2-1.5-6.5-2.7 0.4 2.4 0.5 4.7-0.8-0.3-1.5-0.7-1.3-3.8 0-7.6-0.1-0.7 0.1-1.4 0.9 0.5 1.9 0.7z"/>
			<path fill-rule="evenodd" class="s3" d="m275.2 111.9q-0.6 0.5-0.7 1.3 1.2 2 3.4 1-0.7-0.5-1.4-1 0.1-0.3 0.4-0.5 1.2-0.2 1.8-1.2 0 0.6 0.2 1 0.8-0.3 1.6-0.5 1.4-2.9 3-0.1-0.8 1.5-0.6 3.3 0 0.7-0.4 1.2-2.9 0.4-0.3 1.3-0.3 0.8-0.7 1.5-0.8 0.4-1.1 1.3-0.1 1.2-0.5 2.4-0.6 0.6-1.4 0.6-0.7 2.3-0.6 4.7 0.3 2.7 0.6 5.3-2-0.2-2 1.9 1.2 0.4 1.4 1.6-0.5 2.4-0.7 4.9-0.7-0.2-1 0.3 0.8 0.7 1 1.8-1.7 9.2-4 18.2-3.1 0.8-6 1.8 0.4 0.5 1 0.5 2.3-0.5 4.3-1.6 0.2 0.2 0.4 0.5-1.7 4.8-3 9.8-1.3-0.2-2.4 0.3 0.7 0.7 1.7 1-1.9 5.9-4.7 11.4-2-0.2-4 0.5 1.4 0.8 3 1-1.1 2.5-3.3 0.8-0.4 0.1-0.7 0.5 1.2 0.6 2.4 1.2-2.2 3.9-5 7.5-1.2 0.1-2.2-0.5-0.3 0.1-0.5 0.3 0.5 0.7 1.3 1 0.6 0.4 0.2 1-1.2 1-2 2.3-0.6-1-1.5-1.8-0.4-0.4-0.7 0.2 1.1 1.2 1.2 2.6-2.8 2.9-5.7 5.7 0.1-1.5 0.5-3 0.2-1.2-0.6-0.7-1 2.2-1.4 4.7-0.5 0-1 0-0.2 1.9-1 0-0.2 0.9-0.3 1.7-0.6-0.5-1.3-0.2 1.1 0.3 1 1.5-3.1 3.2-6.7 5.7-1.2-1.5-1.3 0.3-1.5 0-0.7 1.2-1.6 1.7-3.5 3.1-0.2-0.6-0.7-1-0.1 1-0.5 1.9-2.2 1.5-4.6 2.8-0.7-1.9 0-3.8-0.2-0.7-0.7-0.4-0.7 2.6-1 5.2-5.8 3-11.8 5.7-0.7-1.9-0.9 0.3-6 2-12.3 3.2-5.2 0.3-10.3 0 0.6-0.6 0-1.2-0.6 0.6-1.4 1-0.3-0.2-0.6-0.3 1-0.8 0.1-1.7-0.5 0.6-0.8 1.3-3.4 0.5-6.7-0.8 2.1-1.6 4.4-3 1.2-0.9 1.5-2.2-12.7 7.9-27.5 5.9-1-0.1-1.7-0.5-0.1-0.3-0.3-0.5-7.5-1.4-14.4-4-0.2-1.2-0.1-2.5-0.9-0.8-1.2 0.3-0.4 1.2-1.3 2-23.6-9-41.7-26.3 0-0.6 0.3-1 0.8-0.4 1.7-0.7-0.1-0.3-0.3-0.3 0-0.4 0-0.7-0.1-0.6-0.7-0.7-1 0.4-2 0.4-0.8 0-1.7 0-6.1-8.1-9.3-17.7-0.2-1.3 0.7-2.2 0.9-0.5 1.6-1.3 0.7-0.3 1.4 0.2 0.1 0 0.3 0 1.2 0.4 2.5 0.3 0.8-0.8 2-1-0.1-2.4-2.3-1.3-0.3-0.8 0.1-1.4 1.1-1.3 2.5-2.3 2.4-3 0.9-6.5 0.1-0.1 0.3-0.2 3.8 2.8 8.3 3.2-4.5-2.9-6.1-8.2-1.1-7.7 3.8-13.8 3-1.9 5.7-4.2 2.4-1.6 3.5-4.3 4.9 2.7 10.1 4.8 0.6 0.6 0 1.2 0.3 0.4 0.7 0.3 1.8 0.3 3.7 0.4 0 0.5 0 1-0.8 0.5-1.7 1 0.3 0.1 0.7 0.3 1.4-0.6 3-1 2.6-0.2 4.8 1 0.1 1.3 0.5 2.5-0.1 1.8-0.3 3.8 1.6 0.1 3-0.8 0.6-0.5 0-0.8-1-0.3-1.7-1 0.5-0.9-0.3-1.7 0.1-0.8 1-1 4.4 0.4 9 0.3 0-0.8 0-1.6-1.7 0-3.4-0.2-0.8-0.7-0.6-1.8 1.4-2.4 3.1-4.7 1.9-3.7 3.2-7.7 1.4-4.1 5.7-6.1 1.3-0.4 2.6 0-0.8 0.6-1.3 1.6 0.3 0.4 0.7 0.5 3-1.8 6.3-3.1 2.1-0.4 4 0.5-2.1 3.3 1 0.8 2.1-0.5 3.7 0.8-1.7 1.2-2.7 3 0.2 0.2 0.3 0.4 1.4-1.1 2.9-2 1.3 0.8 2.3 2 0.3 1.7-0.3 3.3-1.2 1.5-2.4 3-4.1 3.4-7.5 7.5-1.3-0.1-2.6 0.2 0.8 0.4 1.6 0.8-1.7 2.6-4 4.8-1.6-1-3.3-0.6 1.2 0.8 2.7 1.1 0.4 0.4 0.1 0.9-2.4 2.9-4.5 6.1-1 0-2-0.5-0.5 0.5-0.1 1 0.6 0.3 1.1 0.7-1.6 2-4 3-3.1 0.7-6.5 0.7-1.9-0.1-3.8-0.2 1.2-0.7 2.7-0.5 0.1-1-0.4-1.8-1.5-0.8-3.3-0.9 0 0.5 0 1-0.3 0.7 0 1.7-0.7 0-1.3 0 0.3-1.7-1.4-1.7-1 0.7 0 1.7-0.2 0.2-0.5 0.3-10.6-3.7-21.1-7.5-0.9-0.3-1.7 0 7.4 3.9 15 7.2-0.7 5.1-4.5 8.3-1.6-5-4-9.6 1.4 14 11.7 23.6 0.1 0.6-0.5 1 1.5-0.1 2.6 1.2 6 5.6 15.7 8.7 2.1 0.4 4.3 0.5 0.1-0.7-0.3-1.2-4.8-0.8-9-3 1.1-2.5 3.7-3.5-0.6-0.9 0.1-1.7 1.4-1.4 2.9-2.6 1.2-0.3 2.3-0.9 0.2-0.5 0.3-1 2.4-0.7 3.9 1.2 0.2-0.1 0.1-0.3 1.2-0.2 0.4-1 0-3.1 2.8-4.4 1-0.4 2.2-0.3-0.2 2.7 2.3 1.7 0.2-1.3-0.7-2.2 1.9-1.4 4-2.2 1.9-0.7 3.9-1.3-0.2 3.9 1.1 0 4.9-1.6 10-2.7 1.2 0.2 0.4 1 0.1 0.4 0.5 0.7 0.2-1.3 1.1-2.2 3-0.8 6-1-0.6 0.5 0 0.9 0.8-0.9 1.5-1.7 1.7-0.4 3.4-1 0.6 0.7 1.5 0.5-0.7-0.6 0-1.2 3.2-1.3 5.8-3.6 1.4 1.3 0.8-0.5 1.9-2.7 5-3.5-0.4-0.4-1-0.5 1.5-1.5 3-3 0.7-0.3 1.4 0.1 0.1-0.7 0.1-1.6 1.5-1.1 2.7-2.4 0.3 0.7-0.2 1.4 0.2 0.4 0.5 0.6 0.6-1.4 1-3 2.4-2.1 4.9-4.1 0.4-0.4 0.6 0.1-0.7 1.4 0.2 2.7 0.7-1.9 1-4 0.2-0.2 0.5-0.3 0.4 0.6 1 0.5 0.3-0.9 0.7-1.7 4.4-3.3 10-3.7-1.3 0.7-0.7 1.9 6-1.8 8.3 4.3-0.2 0.2-0.5 0.3-1.8-0.7-3.8-0.6-0.1 0.5 0.3 1 2.9 0.8 4.5 3.3 0.4 2.3-0.6 4.3-12.2 7.6-23.9 15.9-1 0.1-2 0.3 0.7 0.5 0 1-2.6 2-5.3 3.8-3.6-0.3-6.7 0.7-5.9 1.1-10.5 5-1-0.4-2-1-0.4 0.6 0.2 1 0.6 0.2 1 0.7-4 3.6-5.8 8.6-1.5 0.2-2.9 0.4 0.9 0.8 2 0.6-0.8 3.1-1.3 6.4-1.2 0-2.3 0-0.9 0.1-0.5 1 0.6 0.4 1.5 0.3-0.2 4.4 0.8 8.7 0.9 2 1 4.3 1.5 1.1 1.2 3 0.5 0 1 0 0.3-3.4-1-6.7 0.6-0.6 1 0.4 6.7 1.6 13.6 1.6-0.1 1.4 0.4 2.7 0.8-1.4 0.6-3 8.5-0.3 16-4 0.4 0.3 0.7 0.7 0.2-1.6 1.7-1.2-0.6 1.5-0.2 3.2 0.8-2 1-4 12.4-7 20.8-18.4 2.5-0.6 4.9 0.4 0.5-0.1 0.8-0.5-2.3-0.9-4.7-1.2 2.4-3 4.7-6 0.4-0.5 1-0.3-0.1-0.7 0.2-1.4 3.6-5.1 6.5-10.6 1.4-0.1 3-0.4-1.1-0.6-2-1.3 1-2.2 2.1-4.3 0.4 0.7 0.9 0.3-0.6-1-0.2-2 3.5-7.5 6.7-15 0.3 0.1 0.6 0.3 0.3-1.2-0.1-2.5 1.8-5.4 2.3-11.1 2.1 0 0.5-1-0.1-3.9-0.7-7.7-0.7-2.9-3.1-4.7 0.2-0.1 0.5-0.3 1.7 0.6 3.5 0.7 0-0.7-0.2-1.4-2-1.4-3.5-3.3-3.5-3.5-3.3-8.3 3 1.5 6.3 2.5 0.4 0.4 0.8 0.8-0.4-2.2-1.3-4.3-0.4-1.4 0.2-2.7 3.9 3.4 8.5 6 1.8-1.1 2.8-3 0.7-0.7 0.8 0.3-0.1-2.1 1.9-2.8-0.8-1.3 0.5-2.2 1.3 4.1 0.5 8.4-1.1-0.9-2.4-0.7 0 0.7 0 1.3-0.6 0-1.3 0 0 0.7 0 1.4z"/>
			<path fill-rule="evenodd" class="s56" d="m270.9 103.2q1.2 0.7 0 1.7-0.6-0.9 0-1.7z"/>
			<path fill-rule="evenodd" class="s3" d="m282.9 115.2q-0.2-1.8 0.6-3.3-1.6-2.8-3 0.1-0.8 0.2-1.6 0.5-0.2-0.4-0.2-1-0.6 1-1.8 1.2-0.3 0.2-0.4 0.5 0.7 0.5 1.4 1-2.2 1-3.4-1 0.3 0 0.5 0.3 2.1-1.3 3.2-3.5-0.3-0.3-0.7 0-0.9 1.2-2.3 1.9 0-0.7 0-1.4 0.7 0 1.3 0 0-0.6 0-1.3 1.3-0.2 2.4 0.7 0.8-4.3-0.5-8.4-1.3 0.9-0.5 2.2-2 0.7-1.9 2.8-0.1-1-0.8-0.3 1.4-3.1 3.2-6 3 5.7 0.8 11.7 0.5 0 1-0.2 2.1-2.7 4.7-5 1.8-1.4 4-1.7-4.3 4.4-6 10.2z"/>
			<path fill-rule="evenodd" class="s57" d="m264.5 110.9q0.7 1.4 1.9 2.6 0.3 0.4-0.2 0.7-2.2-1-1.7-3.3z"/>
			<path fill-rule="evenodd" class="s58" d="m274.5 113.2q0.1-0.8 0.7-1.3 1.4-0.7 2.3-1.9 0.4-0.3 0.7 0-1.1 2.2-3.2 3.5-0.2-0.3-0.5-0.3z"/>
			<path fill-rule="evenodd" class="s59" d="m261.2 116.9q0.5 0.4 0 0.6-0.7-0.3-1.3-0.5-1.5-2.3-3.4-4.3-1.4-1.2-3-1.8 1.1-0.4 2.4-0.5 0.5-0.3 0.8-0.9 0.9 4.6 4.5 7.4z"/>
			<path fill-rule="evenodd" class="s60" d="m117.5 113.9q2.8 1.3 5.7 1.5-0.9 2.8-2.3 5.5-0.6 0.1-1.2 0.3-4.4-0.4-8.8-0.5 0.8-0.4 1.6-0.8 3.5-2.2 5-6z"/>
			<path fill-rule="evenodd" class="s3" d="m281.5 119.2q-0.4 2-0.8 4-0.8 0.4-1.5 1 0.7 0.2 1.3 0.3-0.8 4.5-1.5 9-2.9 0.6-0.1 1.7-1.1 3.4-1.4 7-0.6 0-1.3 0 0.3-0.5 1-0.3 0.2-2.5 0.7-4.9-0.2-1.2-1.4-1.6 0-2.1 2-1.9-0.3-2.6-0.6-5.3-0.1-2.4 0.6-4.7 0.8 0 1.4-0.6 0.4-1.2 0.5-2.4 0.3-0.9 1.1-1.3z"/>
			<path fill-rule="evenodd" class="s61" d="m271.2 123.5q0.4 2.2-0.7 4.4-0.1-0.5-0.3-0.9 0.4-1.7 1-3.5z"/>
			<path fill-rule="evenodd" class="s62" d="m271.5 141.5q0.5 0 0.7 0.4-1.3 1.4-3 1.3 1.1-1 2.3-1.7z"/>
			<path fill-rule="evenodd" class="s63" d="m113.2 143.2q1.1 0.2 0.3 1.2 0.3 0.7 0.7 1.5-1.6 0.5-1.7-1.4 0.1-0.8 0.7-1.3z"/>
			<path fill-rule="evenodd" class="s64" d="m125.9 148.2q-1.6 0.4-3 1-0.4-0.2-0.7-0.3 0.9-0.5 1.7-1 0.7-0.1 1.5-0.4 0.5 0.2 0.5 0.7z"/>
			<path fill-rule="evenodd" class="s65" d="m103.5 151.2q0.5-0.1 0.7 0.3-1.2 1.6-2.7 0.5 1.2-0.1 2-0.8z"/>
			<path fill-rule="evenodd" class="s66" d="m112.2 150.2q0.4-0.1 0.7 0.3 0.9 1.4 0.1 2.7-0.6-1.5-0.8-3z"/>
			<path fill-rule="evenodd" class="s3" d="m137.9 146.9q-0.2 1.1 0.6 1.8 1.7 0.2 3.4 0.2 0 0.8 0 1.6-4.6 0.1-9-0.3-0.9 0.2-1 1 0.8 0.8 0.3 1.7 0.7 0.7 1.7 1 0.6 0.3 0 0.8-1.4 0.9-3 0.8 0.2-2 0.3-3.8-0.4-1.2-0.5-2.5-2.2-1.2-4.8-1 0-0.5-0.5-0.7-0.8 0.3-1.5 0.4 0-0.5 0-1-1.9-0.1-3.7-0.4 0.3-0.6 1-1 5.4 2 11 3.5-0.9 0.5-0.3 1.2 0.6-0.7 1.6-0.7 4 1 8 0.4-2.3-0.8-4.6-1 0-1.3 1-2z"/>
			<path fill-rule="evenodd" class="s67" d="m272.9 150.5q0.4 0 0.6 0.4-1.9 2.5-5 2.6 2.5-1.1 4.4-3z"/>
			<path fill-rule="evenodd" class="s68" d="m140.5 152.5q0.7-0.1 1.4 0.2-1.9 1.7-4 1 1.3-0.7 2.6-1.2z"/>
			<path fill-rule="evenodd" class="s69" d="m133.9 153.9q-1 1.1-2.4 0.6 0.1-0.3 0.4-0.5 0.9-0.2 2-0.1z"/>
			<path fill-rule="evenodd" class="s62" d="m146.5 154.5q1.2 0.5 0.2 1.4-0.6 0.8-1.5 0.5 1-0.8 1.3-1.9z"/>
			<path fill-rule="evenodd" class="s70" d="m261.9 152.9q0.3 0 0.5 0.3 0.2 1.1 0.5 2.2 0 0.9-0.7 1.5-0.5-2-0.3-4z"/>
			<path fill-rule="evenodd" class="s71" d="m116.5 156.2q3.5-0.3 0.5 1-1.1-0.2-0.5-1z"/>
			<path fill-rule="evenodd" class="s72" d="m260.5 156.2q1.5 1 0.7 2.7-0.5-1.4-0.7-2.7z"/>
			<path fill-rule="evenodd" class="s73" d="m126.5 156.5q0.5 0 0.7 0.4-0.6 0.8-1.3 0.3 0.3-0.3 0.6-0.7z"/>
			<path fill-rule="evenodd" class="s74" d="m101.2 160.5q1.4 0.2 2.3 1-0.1 0.2-0.3 0.4-0.8-0.4-1.7-0.5-0.4-0.4-0.3-0.9z"/>
			<path fill-rule="evenodd" class="s68" d="m260.9 170.5q0.7 0 0.5 0.7-1.4 1.1-2.9 2-0.5-0.4-0.1-1 1.2-0.9 2.5-1.7z"/>
			<path fill-rule="evenodd" class="s75" d="m271.9 173.5q1.1-0.6 2.3 0-0.1 0.3-0.3 0.4-0.9-0.5-2-0.4z"/>
			<path fill-rule="evenodd" class="s76" d="m90.5 176.5q-0.4 0.6-0.1 1.4 2.2-1.1 2.3 1.3-1.2 0.2-2 1-1.3 0.1-2.5-0.3 2.1-0.5 4-1.5-0.3-0.4-0.7-0.5-1.7 0.5-3.3 1.3-0.4 0.2-0.3 0.7-0.7-0.5-1.4-0.2-0.7 0.8-1.6 1.3-0.9 0.9-0.7 2.2-0.4-0.6-1-1.2 3.4-3.1 7.3-5.5z"/>
			<path fill-rule="evenodd" class="s77" d="m88.2 179.9q-0.2 0-0.3 0-0.1-0.5 0.3-0.7 1.6-0.8 3.3-1.3 0.4 0.1 0.7 0.5-1.9 1-4 1.5z"/>
			<path fill-rule="evenodd" class="s78" d="m249.2 176.9q0.9 1.5 0.3 3.3-0.5-1.6-0.3-3.3z"/>
			<path fill-rule="evenodd" class="s79" d="m108.9 32.2q-0.9 3-2.4 5.8 0.2 0.3 0.4 0.5 3.8-2.8 8.3-4.3 3.5-1.5 7.3-1.5 0.3 0.2 0.4 0.5 0.2 1.2 1 2 2.4 5.1 3.6 10.7 0.4 1.1 0.4 2.3-0.1 1.3 0.6 2.3 0 1 0 2-0.1 5.2 0.2 10.4 0.3 0.3 0.8 0.3 0.7 1 1.4 2 1.7 4.2 2.8 8.7 1 5.5-0.2 11-0.7 2.8-1.6 5.6-1.4-0.3-2.7-0.3-2.1-0.6-4.3-0.7 0.1 3.1 3.3 3 1 0.4 2 0.7 0.3 0.4 1 0.3 0 1.9-0.5 3.7-0.9 2.1-1.5 4.3-1 3.4-2 6.7-1.7 4.6-3.3 9.3-0.7 1.3-1 2.7-0.7 1.2-1.7 2.2-6 0-12 0.5 0.2 0.5 0.7 0.6 1.2 1.9 2 4 1.2 3.7 0 7.4 0 0.1 0 0.3-1.1 1.4-1.7 3.2 0.7 0.9 1.7 1.6 3.7 1.2 7.3 3 1.7 0.6 2.7-0.8 0.4 0.3 0.3 1-0.6 0.3 0 0.8 3.5 1.3 7 2.5 0.3 0 0.7 0 1.6 1.1 3.6 1.4 1-0.4 1.7-1 0.6-0.3 1.2-0.7 1.7-2.9 3.6-5.7 1-1.5 1.2-3.3 0.7-1.2 1.2-2.7 0.3-0.8-0.2-1.3 1.9-1.6 3.2-4 1.1-0.7 1.8-1.7 1.3-0.5 2.7-1 2.3-0.1 4.6 0.4 1-0.2 1.7-0.7 2.5-0.4 5-0.7 1.7 0.2 2.7 1.5 1.6 0.2 3.3 0.5 1.1 0.9 1.2 2.4 1.6 0.7 2.8 2 1.2 1.7 0.2 3.6-1.3 3.2-3.5 5.7-2.6 2-4.4 4.7-1.3 0.8-2 2.3-1.3 0.5-2.1 1.7-1.4 2-2.9 4-1.1 0.6-1.3 2-2.3 1.9-3.3 4.6-0.4 0.6-1 1-1.7 2-3.7 3.7-1.7 0.7-3.3 1.3-5.2 0.5-10.4 0.4-1.1-0.7-2.3 0-3.2-1.5-6.7-2-0.1 0-0.3 0-0.4-0.5-1-0.4-0.4 2.8-1.7 5.4-0.5 0.6-1 1.3-1.4 1-2.3 2.5 0.9 1.9 2 3.5 0.4 1.6 1.7 2.7 2 3.9 5.6 6.6 0.2 0.6 0.7 1 3.4 3.4 7.8 5.4 1.4-1.9 2.9-3.7 0.7-0.4 0.8-1.3 0.6 0.4 1-0.4 0.4-0.6 0.5-1.3 5.6-7.2 14.3-10.3 0.5-0.5 0.4-1 0.4 0.3 1 0.6 6.4-2.2 13-3.6 0.5 0 1 0 3.6-0.7 7-1.7 0.8 0.1 1.6-0.2 0.7-0.2 0.7-0.8 0.5-0.2 0.8-0.7 0.3 0.5-0.1 0.9 4.9-0.6 9.6-2.4 0.9-1.2 1.7-2.5 0.4 0.8-0.3 1.5 2.8-0.5 4.8-2.8 0.1-0.7-0.2-1.3 0.7 0.4 1.4 0.5 1.2-1.3 2.5-2.5-0.2-1.7-1.5-2.9 1.4 0 2.3 1.4 0.3 0.3 0.7 0 1.6-1.7 3.3-3.4-0.5-0.5-1.2-0.8-0.3-0.3 0-0.7 0.9 0.7 1.9 0.9 3.2-3.1 6.6-5.9 4.1-2.4 7.7-5.6 1.3 0.2 2.3-0.9 1.7-0.5 3.4-0.8 3.1-0.4 6.3-0.3 0.8 0 1.7 0.3 0.8 1 2.3 1.3 1.8 1.7 2.7 4 0.2 1.7-0.7 3 0.4 0.8 0.3 1.7 0.5 0 1 0 0 2 0 4-0.4 1.4-1.1 2.7-1.2 0.9-2.2 2-2.4 0.9-4.3 2.6-4.5 2.3-8.4 5.4-3.2 1.7-6 4-2 1-3.6 2.6-2 0.8-3.4 2.4-2 1.1-4 2.5-4.3 0.2-8.6 0.6-0.3 0.2-0.4 0.5-3.2 0.4-5.5 2.7-0.3 0.5 0.2 0.8-2.7 0-3.7 2.5-0.9 0.4-1 1.4-1.8 2.2-3 5 0.2 0.5 0.7 0.6-0.3 0.4-0.7 0.7-0.8 0.4-1.1 1.3-0.8 2.8-0.9 5.4-0.3 0-0.3 0.3-0.9 2.9-0.3 6 1.2 0.8 2.6 0.7 3.9 1.2 8 1.3 2 0 4 0 0-1.3 0-2.7 0.5 0 1 0 0 1.4 0 2.7 2.5 0.1 5-0.2 0.5-0.1 0.7-0.5 2.2 0.1 4-1 3.7-1 7.2-2.6 0.2-0.5 0.1-1-0.2-1.3 1-1.4-0.1 1 0 1.7 2.8-1.5 5.4-3.3 2.4-1.8 5-3.2 2.4-2 4.6-4.2 1.1-0.5 1.4-1.6 2.8-3.9 6.3-7 1.8-2.4 3.7-4.7-4.1-2.2 0.3-1 0.9-0.5 1.3-1.3 1.7-2 2.7-4.4 2-2.5 3.3-5.5-0.8-0.9-2-1.5 0.4-0.4 1-0.3 1 0.6 2 0 0.9-1.7 1.7-3.3 0.9-0.6 0.7-1.7 0.7-1.4 1.3-3 2.7-4.7 4-10 1.2-2 1.3-4.3 0.4-0.2 0.4-0.7 0.9-3.3 2-6.7 0-0.6 0-1.3 0.3 0 0.3-0.3 0.3-0.1 0.5-0.4 0.4-5.5-0.2-11-0.2-1.1-1.3-1.3-0.2-0.5-0.7-0.7-1.1-0.9-2.3-1.6-0.9-1.1-2.3-1.4-0.1-0.7 0.1-1.3 2.3-1.4-0.1-2.7-0.3-0.8-1-1.1-1.9-1.1-3.7-2.2-0.2-2.1 2-2-0.6 1 0.3 1.7 1.6 0.6 3 1.8 1.9 2 3.4 4.3 0.6 0.2 1.3 0.5 0.5-0.2 0-0.6 0.4-0.9-0.7-1.5 0.3-0.3 0.7-0.2 1.5 1.9 3.5 3.3 0.2 0.7 0.2 1.4-1.8-0.1-3.5-0.7-0.3 0.2-0.5 0.3 2.4 1.8 3.1 4.7 0.6 3.8 0.7 7.7 1.6 1-0.5 1-0.5 5.7-2.3 11.1 0.4 1.3 0.1 2.5-0.3-0.2-0.6-0.3-3.2 7.5-6.7 15-0.4 1 0.2 2-0.5 0.4-0.9-0.3-1.1 2.1-2.1 4.3 0.9 0.7 2 1.3-1.6 0.3-3 0.4-2.9 5.5-6.5 10.6-0.3 0.7-0.2 1.4-0.6-0.2-1 0.3-2.3 3-4.7 6 2.4 0.3 4.7 1.2-0.3 0.4-0.8 0.5-2.4-1-4.9-0.4-8.4 11.4-20.8 18.4-0.2 2-1 4-0.4-1.7 0.2-3.2-1.5-0.4-1.7 1.2-0.3-0.4-0.7-0.7-7.5 3.7-16 4 0.2 1.6-0.6 3-0.5-1.3-0.4-2.7-6.9 0-13.6-1.6-0.4-1-1-0.4 1.3 3.3 1 6.7-1.3-4.2-2.9-8.3-0.6-4-0.5-8-1.4 0.3-1.6-1 1.1 0 2.3 0 0.5-3.3 1.3-6.4-1.1 0.2-2-0.6 1.4-0.2 2.9-0.4 1.8-5 5.8-8.6-0.4-0.5-1-0.7-0.6-0.4-0.2-1 1 0.6 2 1 4.6-3.9 10.5-5 3.2 0.1 6.4-0.2 0.2-0.2 0.3-0.5 2.7-1.8 5.3-3.8 0.7-0.5 0-1 1-0.2 2-0.3 11.7-8.3 23.9-15.9 1-2 0.6-4.3-1.6-2.5-4.5-3.3-0.4-0.5-0.3-1 2-0.1 3.8 0.6 0.3-0.1 0.5-0.3-2.3-6.1-8.3-4.3-0.6-1.2 0.7-1.9-5.6 0.4-10 3.7-0.4 0.8-0.7 1.7-0.6 0.1-1-0.5-0.3 0.1-0.5 0.3-0.3 2.1-1 4-0.9-1.3-0.2-2.7-0.2-0.5-0.6-0.1-2.5 2-4.9 4.1-0.4 1.6-1 3-0.3-0.2-0.5-0.6 0.5-0.7 0.2-1.4-1.2 1.3-2.7 2.4 0 0.9-0.1 1.6-0.7-0.4-1.4-0.1-1.5 1.5-3 3 0.6 0.1 1 0.5-3.1 0.8-5 3.5 0.6 1.8-0.8 0.5-2.6 2.3-5.8 3.6-0.7 0.6 0 1.2-0.9 0.2-1.5-0.5-1.7 0.6-3.4 1-0.7 0.8-1.5 1.7-0.6-0.4 0-0.9-3 0.2-6 1-0.9 0.9-1.1 2.2-0.4-0.3-0.5-0.7 0.8-0.8-0.4-1-5.1 1.1-10 2.7-1.3 3.9-1.1 0-2 0.6-3.9 1.3-2.7 0.4-5 1.7 0.4 1.1 1.4 1.8-0.3 0.3-0.5 0.5-1.2-0.9-1.7-2.3-6.9 2.4-11.8 7.7-1.5 1.2-2.9 2.6-0.7 0.8-0.1 1.7-2.6 1-3.7 3.5 4.2 2.2 9 3 0.4 0.5 0.3 1.2-2.2-0.1-4.3-0.5-9.7-3.1-15.7-8.7-1.1-1.3-2.6-1.2 0.6-0.4 0.5-1-10.3-9.6-11.7-23.6 2.4 4.6 4 9.6 3.8-3.2 4.5-8.3-7.6-3.3-15-7.2 0.8-0.3 1.7 0 10.5 3.8 21.1 7.5 0.3-0.1 0.5-0.3-1-1 0-1.7 0.6 1 0.9 2 0.5 0.4 1.1 0.5 5 0.4 10 0 1.1-0.3 2-0.8 2.4-1 4-3-0.5-0.4-1.1-0.7-0.4-0.5 0.1-1 1 0.6 2 0.5 2.1-3.2 4.5-6.1 0.3-0.5-0.1-0.9-1.5-0.3-2.7-1.1 1.7-0.4 3.3 0.6 2.3-2.2 4-4.8-0.8-0.4-1.6-0.8 1.3-0.3 2.6-0.2 3.4-4.1 7.5-7.5 1.2-1.5 2.4-3 0.6-1.6 0.3-3.3-1-1.2-2.3-2-1.5 0.9-2.9 2-0.1-0.2-0.3-0.4 1-1.8 2.7-3-1.6-1.3-3.7-0.8-3.1 2.5-1-0.8-1.9-0.9-4-0.5-3.3 1.3-6.3 3.1-0.4-0.1-0.7-0.5 0.5-1 1.3-1.6-1.3-0.4-2.6 0-4.3 2-5.7 6.1-1.3 4-3.2 7.7-1.7 2.3-3.1 4.7-1 0.7-1 2 2.3 0.2 4.6 1-4 0.6-8-0.4-1 0-1.6 0.7-0.6-0.7 0.3-1.2-5.6-1.5-11-3.5-0.7 0.4-1 1-0.4 0.1-0.7-0.3 0.6-0.6 0-1.2-5.2-2.1-10.1-4.8-1.1 2.7-3.5 4.3 0-0.7-0.4-1.3 1.7-2 1.4-4.7-1.1-5-1.9-10 2.6 3.7 3.9 8 1.7-2.1 2-5-0.7-6-5.4-9.8-4 0.3-7.3-1.7 4.8-0.1 9.7-0.3 2.2-0.5 4.3-1.5 0.4 0.8 0.3 1.7-0.8 0.4-1.6 0.8 4.4 0.1 8.8 0.5 0.6-0.2 1.2-0.3 1.4-2.7 2.3-5.5-2.9-0.2-5.7-1.5 0-0.4-0.3-0.4-3.2-1.5-3.7-5 0-2.4 2.2-2 0.2 1.6-0.3 3 2.9 5.1 8.5 3.4 2.2-6 4.1-12 0.5-1.5 0.5-3-1.9-0.3-3.5-1.4-0.3-0.6 0.2-1.1 1.8-0.8 3.7-1-2.1-0.6-4-1.4-1.8-1.5-1.4-3.8-1.1 0-2.3 0 0.1-2.7-0.2-5.3-0.2 0.7-0.5 1.3-0.3-0.3-0.6-0.7 0.2-1.5 0.6-3 0-0.7-0.6-1-3.1 2.6-6 5-1.3 0.6-2.4 1.4-0.3-0.5-0.6-1 0.3-0.5 0.6-1 2.8-2.4 5.7-4.5 5.6-5.4 7.7-12.9 0.6-0.6 0.8-1.6 1.3-6.4 0.5-12.7 0-0.3 0-0.7-0.7-6.7-3-13-0.9-2.8-2.3-5.3-4.1 1.4-8 3.2-14.8 6.7-22.4 21.1-0.9 0.1-1.6-0.3 2-4.8 5.1-9 5-5.4 10.7-10 1.9-2.8 2.3-6-9.1 7.4-20.8 9.7-1.3-0.2-1.8-1.4-1.1-1.7-1.5-3.6 0.4-0.3 1-0.4 0.7 2.4 2.3 4.4 11.8-3.4 21.7-10.5 0.4-0.3 1-0.2 0 0.5 0 1z"/>
			<path fill-rule="evenodd" class="s80" d="m190.2 178.2q0.4-0.1 0.7 0.3-1.8 1.2-3.7 2-0.3-0.1-0.7-0.3 1.8-1.2 3.7-2z"/>
			<path fill-rule="evenodd" class="s81" d="m206.2 177.5q-0.1 0.3-0.3 0.5-3.2 0.3-6.4 0.2 3.1-1 6.7-0.7z"/>
			<path fill-rule="evenodd" class="s33" d="m179.9 176.5q0.4 0 0.6 0.4-0.5 1.3-1.6 0.6 0.4-0.6 1-1z"/>
			<path fill-rule="evenodd" class="s82" d="m197.2 174.9q0.8-0.7 1.7 0-0.9 0.5-1.7 0z"/>
			<path fill-rule="evenodd" class="s83" d="m200.5 171.2q0.8-0.1 1.4 0.3-1.2 1.3-2.7 0.7 0.7-0.5 1.3-1z"/>
			<path fill-rule="evenodd" class="s84" d="m205.9 163.9q0.3-0.1 0.6 0.1-0.7 1.2-1.6 2.2 0.6 1.1-0.7 1-0.1-0.9 0.2-1.7 0.8-0.7 1.5-1.6z"/>
			<path fill-rule="evenodd" class="s3" d="m144.5 164.2q-0.9 0.5-2 0.8-5 0.4-10 0-0.6-0.1-1.1-0.5-0.3-1-0.9-2 1.7 0 1.4 1.7 0.6 0 1.3 0-0.3-1 0-1.7 0-0.5 0-1 1.8 0.1 3.3 0.9 0.5 0.8 0.4 1.8-1.5-0.2-2.7 0.5 1.9 0.1 3.8 0.2 3.4 0 6.5-0.7z"/>
			<path fill-rule="evenodd" class="s68" d="m216.2 163.5q2.4-0.1 0.3 0.9-1.6 0.8-3.3 0.5 1.4-0.9 3-1.4z"/>
			<path fill-rule="evenodd" class="s85" d="m252.9 161.2q0.2 1.1-0.7 1.7 0.4-0.7 0.2-1.4-0.8-0.7-1.5-1.5 0.2-0.2 0.5-0.5 0.8 0.8 1.5 1.7z"/>
			<path fill-rule="evenodd" class="s86" d="m133.2 162.5q1.8-0.6 3.3 0.7-1.5 0.4-3-0.2-0.3-0.2-0.3-0.5z"/>
			<path fill-rule="evenodd" class="s87" d="m151.9 160.5q0.5 0.2 0.6 0.7-0.3 0.2-0.6 0.3-0.5 0-1 0 0.6-0.4 1-1z"/>
			<path fill-rule="evenodd" class="s88" d="m225.9 159.2q1.9 0.7 4 1.3-2.1 0.7-4-0.5-0.6-0.4 0-0.8z"/>
			<path fill-rule="evenodd" class="s68" d="m214.5 157.9q0.5-0.1 1 0.1-1.6 1.9-3.6 3.2-0.4-0.2-0.7-0.5 1.8-1.4 3.3-2.8z"/>
			<path fill-rule="evenodd" class="s33" d="m220.5 152.2q0.5-0.1 1 0.2-1.1 1.1-2.3 2.1-0.6-0.4-0.2-1 0.9-0.6 1.5-1.3z"/>
			<path fill-rule="evenodd" class="s89" d="m238.9 146.5q0.6 1.6 0 3.2 1.6 1.7 1.3 4.2-0.1 0.8-0.7 1.3 0-2 0-4-0.5 0-1 0 0.1-0.9-0.3-1.7 0.9-1.3 0.7-3z"/>
			<path fill-rule="evenodd" class="s90" d="m149.9 145.9q0.4-0.1 0.6 0.3-0.6 1.1-1.1 2.3-0.4-0.2-0.5-0.6 0.3-1.2 1-2z"/>
			<path fill-rule="evenodd" class="s91" d="m143.9 138.9q0.5-0.1 0.6 0.5-0.3 1.5-0.5 3.1-0.9-1.7-0.1-3.6z"/>
			<path fill-rule="evenodd" class="s92" d="m158.5 138.5q0.8-0.1 1.4 0.4-1.3 0.7-2.7 0.5 0.7-0.5 1.3-0.9z"/>
			<path fill-rule="evenodd" class="s77" d="m153.5 133.2q0.5-0.1 1 0.2-0.7 1.3-2 2.1-0.5-0.4-0.1-1 0.6-0.6 1.1-1.3z"/>
			<path fill-rule="evenodd" class="s93" d="m261.2 122.2q1.1 0.2 1.3 1.3 0.6 5.5 0.2 11-0.2 0.3-0.5 0.4 0-1.4 0.3-2.7 0-1.3-1.3-1.3-0.4-0.2-0.3-0.7 0.7 0 1.3 0.3 1-4.4-1-8.3z"/>
			<path fill-rule="evenodd" class="s94" d="m232.2 140.9q-3.2-0.1-6.3 0.3 1.6-0.8 3.6-0.7 1.5 0 2.7 0.4z"/>
			<path fill-rule="evenodd" class="s95" d="m161.2 125.5q-2.5 0.3-5 0.7 2.3-1.5 5-0.7z"/>
			<path fill-rule="evenodd" class="s96" d="m128.5 95.5q0.6 0.2 0.7 0.9-0.2 0.4-0.3 0.8-1-0.4-1.7-1 0.7-0.3 1.3-0.7z"/>
			<path fill-rule="evenodd" class="s97" d="m128.2 64.5q1.1 1.1 1.5 2.7 4.1 10.6 1.5 21.7-1 0-2-0.2-0.5-0.3-0.7-0.8 1.8-7.9 0.2-15.7-0.2-1.6-1.2-2.7-0.1 0.6-0.3 1.2 1.8 8.9 0.3 17.8-2.5-0.3-5-0.5 0.7-4.6-0.6-9.1 2.8-4.7 5.1-9.7 0.9-2.3 1.2-4.7z"/>
			<path fill-rule="evenodd" class="s98" d="m123.2 39.5q2.3 6.3 3 13-0.3 0-0.5-0.3-0.2-1.5-0.3-3-1.7-4.7-2.2-9.7z"/>
			<path fill-rule="evenodd" class="s99" d="m258.9 180.9q0.5-0.1 1 0.1-2.4 2.2-5.4 3.2 0-0.5 0-1 2.6-0.6 4.4-2.3z"/>
			<path fill-rule="evenodd" class="s100" d="m162.5 176.5q-2.1 0.8-4 2.2 0.9 0.9 0.7 2.2-2.5 1-2.3-1.7-1.2-0.1-2.2 0.3-2.8 1.3-2.8 4.4-0.6-0.8-1-1.7-0.4 1.5 0.6 2.7 0.1 0.2-0.1 0.3-1.5-1.9-3.9-1.2-0.1 0.5-0.3 1-1.1 0.6-2.3 0.9 4.9-5.3 11.8-7.7 0.5 1.4 1.7 2.3 0.2-0.2 0.5-0.5-1-0.7-1.4-1.8 2.3-1.3 5-1.7z"/>
			<path fill-rule="evenodd" class="s34" d="m165.5 182.9q0.6 0.6-0.3 1.1-0.5 0.4-1 0 0.6-0.7 1.3-1.1z"/>
			<path fill-rule="evenodd" class="s82" d="m151.9 183.9q0.8 0.8-0.4 1-1-1.2-0.6-2.7 0.4 0.9 1 1.7z"/>
			<path fill-rule="evenodd" class="s101" d="m180.2 181.5q0.5 0.2 0.2 0.7-1.6 1.8-3.5 3.2-0.7 0.3-1.4 0 2.5-1.8 4.7-3.9z"/>
			<path fill-rule="evenodd" class="s102" d="m128.2 187.5q-0.5-0.4-0.7-1 1.1-0.7 2.4-0.3-1.2 0.3-1.7 1.3z"/>
			<path fill-rule="evenodd" class="s103" d="m141.2 186.2q-0.1 0.7-0.5 1.3-0.4 0.8-1 0.4-0.1 0.9-0.8 1.3 0.7-1.4-0.5-2.3-0.4-0.5 0-1 0.7 0.8 1.6 1.3 0.6-0.5 1.2-1z"/>
			<path fill-rule="evenodd" class="s29" d="m157.9 187.5q0.4 0 0.6 0.4-0.8 1-1.8 2-0.4-0.3-0.5-0.7 0.7-1 1.7-1.7z"/>
			<path fill-rule="evenodd" class="s104" d="m147.9 190.2q1.3 0.3 2.6 0.8-1.6 1.1-3-0.3 0.3-0.2 0.4-0.5z"/>
			<path fill-rule="evenodd" class="s105" d="m231.9 191.9q-0.3 1.1-1.4 1.6 0-0.1 0-0.3 0.5-0.8 1.4-1.3z"/>
			<path fill-rule="evenodd" class="s106" d="m166.5 192.9q0.2-0.6 0.7-0.2 1.1 0.9 1.7 2.2-0.3 0.5-0.7 0.1-0.8-1.1-1.7-2.1z"/>
			<path fill-rule="evenodd" class="s107" d="m185.2 193.5q1 0 2 0 0.5 0.4 0.7 1-1.7-0.4-3.4-0.3 0.4-0.3 0.7-0.7z"/>
			<path fill-rule="evenodd" class="s108" d="m151.5 194.2q1.6 0.2 0.5 1.3-0.6-0.5-0.5-1.3z"/>
			<path fill-rule="evenodd" class="s109" d="m236.5 198.5q1-0.1 2 0.2 0.7 0.3 0 0.7-2.3 0.5-4.6 0.6 1.3-0.8 2.6-1.5z"/>
			<path fill-rule="evenodd" class="s110" d="m125.5 200.2q1.5-0.1 2.7 0.7-0.3 0.1-0.5 0.3-1.2-0.3-2.5-0.5 0.3-0.2 0.3-0.5z"/>
			<path fill-rule="evenodd" class="s111" d="m93.5 200.9q0.9 0 1.7 0-0.6 0.8 0.7 0.6 1-0.1 2-0.3 0 0.3 0 0.7-1.3-0.1-2.4 0.6 0.4 0.5 1 0.4-0.3 0.4-0.3 1-1.3-1.5-2.7-3z"/>
			<path fill-rule="evenodd" class="s112" d="m97.9 201.2q-1 0.2-2 0.3-1.3 0.2-0.7-0.6 1 0 2-0.4 0.6 0.1 0.7 0.7z"/>
			<path fill-rule="evenodd" class="s113" d="m97.9 201.9q0.2 0 0.3 0.3-0.9 0.3-1.7 0.7-0.6 0.1-1-0.4 1.1-0.7 2.4-0.6z"/>
			<path fill-rule="evenodd" class="s114" d="m168.2 204.9q5.3 0.4 0 1-0.5-0.5 0-1z"/>
			<path fill-rule="evenodd" class="s115" d="m229.9 207.5q0.7 0 0.5 0.7-1 1-2.2 1.7-0.5-0.3-0.2-0.7 1.1-0.7 1.9-1.7z"/>
			<path fill-rule="evenodd" class="s116" d="m167.5 208.9q1.1 0 2 0.6-1.4 0.8-2-0.6z"/>
			<path fill-rule="evenodd" class="s3" d="m246.9 204.5q0.2 5.1-4 7.7 0.1-1.2-1-1.5 0.7-0.3 1.3 0.2 0.1-0.8 0.3-1.7 0.8 1.9 1 0 0.5 0 1 0 0.4-2.5 1.4-4.7z"/>
			<path fill-rule="evenodd" class="s117" d="m117.2 210.2q0.4-0.1 0.7 0.3-0.6 1.6-2 1.9 0.6-1.2 1.3-2.2z"/>
			<path fill-rule="evenodd" class="s68" d="m238.9 209.5q0.5 0 0.6 0.5-0.5 2.4-1.6 4.5-0.2-0.1-0.4-0.3 0.8-2.3 1.4-4.7z"/>
			<path fill-rule="evenodd" class="s118" d="m177.9 199.9q0.2 1.3 1.6 1-0.1 4 0.5 8 1.6 4.1 2.9 8.3-0.5 0-1 0 0.3-1.9-1.2-3-0.1-2.3-1-4.3-1-4.3-0.8-8.7-0.9 0.1-1.5-0.3-0.4-0.9 0.5-1z"/>
			<path fill-rule="evenodd" class="s119" d="m185.2 215.9q2 0.2 4 0.8 1.3 0 1.2 1.2-2.5-0.5-4.9-1.4-0.4-0.2-0.3-0.6z"/>
			<path fill-rule="evenodd" class="s61" d="m203.5 216.5q1.9-0.1 3.7 0.5-2 0.1-3.8 0.5-0.9-0.6 0.1-1z"/>
			<path fill-rule="evenodd" class="s116" d="m214.9 222.9q0.4-0.1 0.6 0.3-1.1 3-3 5.7-0.1-0.2-0.3-0.4 1.5-2.8 2.7-5.6z"/>
			<path fill-rule="evenodd" class="s120" d="m177.2 224.9q2.6 0.1 5.3 0.3-0.4 0.4-1 0.5-2.1 0.2-4.3 0.2 0-0.5 0-1z"/>
			<path fill-rule="evenodd" class="s121" d="m191.2 224.9q0.9-0.2 0.8 0.6-1.4 1-2.5 2.4-0.5-0.5-0.1-1 1.3-0.7 1.8-2z"/>
			<path fill-rule="evenodd" class="s122" d="m192.5 225.5q0.9 0.2 0.5 1-1 1.1-2.1 2-0.6-0.2-0.2-0.6 1.2-1 1.8-2.4z"/>
			<path fill-rule="evenodd" class="s116" d="m200.2 226.9q2.9 1.5 6 2.8-3.1 0-5.7-1.8-0.4-0.5-0.3-1z"/>
			<path fill-rule="evenodd" class="s122" d="m160.2 227.9q0.6 1.9 0.2 4-0.9-2-0.2-4z"/>
			<path fill-rule="evenodd" class="s35" d="m161.5 229.2q0.7 0.7 0.7 1.8-0.2 0.9-0.3 1.9-0.5-1.8-0.4-3.7z"/>
			<path fill-rule="evenodd" class="s123" d="m155.2 234.9q-8.1-1.5-16-4 0.1-1.2 0.7-2.2-0.2-0.5-0.7-0.5 0.3-1.1 1.2-0.3-0.1 1.3 0.1 2.5 6.9 2.6 14.4 4 0.2 0.2 0.3 0.5z"/>
			<g>
				<path fill-rule="evenodd" class="s124" d="m95 206.2q0.3 0.4 0.7 0.7-1.9 2.3-3.8 4.7 1.5 0.5 1.1 2-1 2.1-3 3.2 0-0.2-0.1-0.3 0.9-1.7 1.4-3.6-1.5 0.6-2.7 1.6-0.3-0.4-0.7-0.7 3.7-3.6 7.1-7.6z"/>
				<path fill-rule="evenodd" class="s125" d="m84.6 196.8q0.8 0.9-0.2 1.6-2-1.6-4.5-0.7 1.8 2.5 2.7 5.3-0.7 2.5-3.3 1.9-2.3-1.2-3.8-3.3 0.1-0.6 0.6-1 2 2.4 5.1 2.9 0-0.7 0-1.4-1.3-2-2.1-4.2 0.7-1.3 2.1-1.2 1.7-0.1 3.4 0.1z"/>
				<path fill-rule="evenodd" class="s126" d="m96.4 212.3q0.9 1.8-0.7 0.8 0.3-0.4 0.7-0.8z"/>
				<path fill-rule="evenodd" class="s127" d="m89.8 207.2q1.5 1.9-0.1 3.9-2.1 1.3-3.9-0.4-1 1.4-2.3 2.5-0.9-0.1-0.4-1 1.9-2.7 4-5.2 1.3 0.1 2.7 0.2z"/>
				<path fill-rule="evenodd" class="s128" d="m85.8 204.1q2.1 1.6 0 3.3-2.7 2.3-4.3-0.9 1-3.3 4.3-2.4z"/>
				<path fill-rule="evenodd" class="s129" d="m97.1 215.9q1.2 1.1 0.8 2.7-1.8 2.3-1 5.1-1.1-0.3-1.6-1.3-0.1-1.5 0.1-3-4.3-0.7-1-3.4 1.4-0.4 2.7-0.1z"/>
				<path fill-rule="evenodd" class="s130" d="m88.6 208.3q0.9 3-2.2 2 0.8-1.3 2.2-2z"/>
				<path fill-rule="evenodd" class="s131" d="m94.3 214q-0.2 1.1-1.1 2-0.8 0.7-1.6 1.4 0.5-2.3 2.7-3.4z"/>
				<path fill-rule="evenodd" class="s130" d="m85.3 205q0.4 1.5-1 2.3-1.3 0-2.1-1.1 1.2-1.7 3.1-1.2z"/>
				<path fill-rule="evenodd" class="s130" d="m95.9 216.6q2.1 1.9-1 1.5-0.5-0.1-0.9-0.6 0.8-0.9 1.9-0.9z"/>
			</g>
			<g>
				<path fill-rule="evenodd" class="s129" d="m124.7 226.9q0.5 0.2 0.9 0.4-1.2 2.2-2.5 4.3 4.4 2.8-0.5 0.9-1.3 2.7-2.9 5.3-0.3 0.1-0.6 0 0.9-2.9 2.5-5.5-1.1-0.3-1.2-1.3 0.9-0.5 1.8 0.1 1.1-2.2 2.5-4.2z"/>
				<path fill-rule="evenodd" class="s128" d="m104.7 216.9q0.5 0.2 0.6 0.7-1.3 5.9-2.5 11.9-0.6 0.8-0.9-0.1-0.3-2.8 0.7-5.3-0.8-0.4-1.5-0.8-1.5 1.7-2.9 3.4-0.4-0.2-0.9-0.4 4-4.5 7.4-9.4z"/>
				<path fill-rule="evenodd" class="s132" d="m103.2 220.7q0.2 1.1-0.1 2.3-0.8 0.3-1.4-0.1 0.8-1.1 1.5-2.2z"/>
				<path fill-rule="evenodd" class="s127" d="m110 225.7q0.7 0.2 1 0.9-1.5 0.7-1-0.9z"/>
				<path fill-rule="evenodd" class="s129" d="m105.4 224.4q0.7 0.3 0.7 1.1 0.9-0.5 1.6 0.3 1.2 3.2-1.5 5 0.6-2.1 0.5-4.2-1.5 0.7-2.1 2.3-0.4-0.3-0.9-0.5 1.1-1.9 1.7-4z"/>
				<path fill-rule="evenodd" class="s129" d="m124.5 233.9q1.3 0.4 1 1.8-1 1.4-2.5 0.4-1.1 1.4 0.4 2.4 1.3 0.3 2.6-0.2-0.9 2-3.2 1.1-2.5-2.4 0.1-4.9 0.7-0.7 1.6-0.6z"/>
				<path fill-rule="evenodd" class="s127" d="m128.2 236.1q0.8 0.4 1.5 0.8-0.3 0.6-0.6 1.2-0.7-0.5-1.6-0.6 1.5 1.2 2.8 2.5-1.1 4-4.2 1-0.2-0.5-0.2-1.2 1.6 0.5 3.1 0.7-1.2-1.5-2.4-3 0.2-1.5 1.6-1.4z"/>
				<path fill-rule="evenodd" class="s128" d="m114.6 229.9q1.2 0.8 0.8 2.3-0.3 1.3-1 2.4-0.5-0.2-0.9-0.4 0.5-1.3 0.5-2.8-0.8 0.6-1.5 1.1-1.7-0.4-3.2 0.3-0.2-0.2-0.3-0.5 0.6-2.1 2.2-3.4 1.4 0.1 1.7 1.6 0.8-0.6 1.7-0.6z"/>
				<path fill-rule="evenodd" class="s133" d="m124.1 234.7q1 0.7-0.3 0.6-0.4-0.4 0.3-0.6z"/>
				<path fill-rule="evenodd" class="s125" d="m118.3 232.1q1 0.4 1.3 1.5-0.6 1.6-1.1 3.2-0.3 0.5-0.9 0.6-0.1-1-0.3-2-2.8-0.9-0.2-2.7 0.6-0.2 1.2-0.6z"/>
				<path fill-rule="evenodd" class="s134" d="m109.1 228.2q0.5 0.3 0.4 0.9-0.2 1.4-1.4 2.3 0.1-1.7 1-3.2z"/>
			</g>
		</g>
	</g>
</svg>